<mxfile host="app.diagrams.net" modified="2023-04-11T01:48:50.636Z" agent="Mozilla/5.0 (Windows NT 10.0; Win64; x64) AppleWebKit/537.36 (KHTML, like Gecko) Chrome/111.0.0.0 Safari/537.36" etag="nDyL2Sf6HuQSNgHxy_VS" version="21.1.5" type="device">
  <diagram id="L7MIWZaFchMFNF4nSB8t" name="Page-1">
    <mxGraphModel dx="4144" dy="488" grid="0" gridSize="10" guides="1" tooltips="1" connect="1" arrows="1" fold="1" page="0" pageScale="1" pageWidth="827" pageHeight="1169" background="#F1FAEE" math="0" shadow="0">
      <root>
        <mxCell id="0" />
        <mxCell id="1" parent="0" />
        <mxCell id="Ln-0qqn0iWtLyIjcQI3Q-75" value="Suscripción" style="swimlane;fontStyle=0;childLayout=stackLayout;horizontal=1;startSize=30;horizontalStack=0;resizeParent=1;resizeParentMax=0;resizeLast=0;collapsible=1;marginBottom=0;whiteSpace=wrap;html=1;" vertex="1" parent="1">
          <mxGeometry x="667" y="524" width="140" height="180" as="geometry">
            <mxRectangle x="340" y="270" width="100" height="30" as="alternateBounds" />
          </mxGeometry>
        </mxCell>
        <mxCell id="Ln-0qqn0iWtLyIjcQI3Q-76" value="ID Suscripción&lt;span style=&quot;white-space: pre;&quot;&gt; &lt;/span&gt;" style="text;strokeColor=none;fillColor=none;align=left;verticalAlign=middle;spacingLeft=4;spacingRight=4;overflow=hidden;points=[[0,0.5],[1,0.5]];portConstraint=eastwest;rotatable=0;whiteSpace=wrap;html=1;fontStyle=1" vertex="1" parent="Ln-0qqn0iWtLyIjcQI3Q-75">
          <mxGeometry y="30" width="140" height="30" as="geometry" />
        </mxCell>
        <mxCell id="Ln-0qqn0iWtLyIjcQI3Q-77" value="Fecha Pago" style="text;strokeColor=none;fillColor=none;align=left;verticalAlign=middle;spacingLeft=4;spacingRight=4;overflow=hidden;points=[[0,0.5],[1,0.5]];portConstraint=eastwest;rotatable=0;whiteSpace=wrap;html=1;" vertex="1" parent="Ln-0qqn0iWtLyIjcQI3Q-75">
          <mxGeometry y="60" width="140" height="30" as="geometry" />
        </mxCell>
        <mxCell id="Ln-0qqn0iWtLyIjcQI3Q-78" value="Vencimiento" style="text;strokeColor=none;fillColor=none;align=left;verticalAlign=middle;spacingLeft=4;spacingRight=4;overflow=hidden;points=[[0,0.5],[1,0.5]];portConstraint=eastwest;rotatable=0;whiteSpace=wrap;html=1;" vertex="1" parent="Ln-0qqn0iWtLyIjcQI3Q-75">
          <mxGeometry y="90" width="140" height="30" as="geometry" />
        </mxCell>
        <mxCell id="Ln-0qqn0iWtLyIjcQI3Q-79" value="Costo mensual" style="text;strokeColor=none;fillColor=none;align=left;verticalAlign=middle;spacingLeft=4;spacingRight=4;overflow=hidden;points=[[0,0.5],[1,0.5]];portConstraint=eastwest;rotatable=0;whiteSpace=wrap;html=1;" vertex="1" parent="Ln-0qqn0iWtLyIjcQI3Q-75">
          <mxGeometry y="120" width="140" height="30" as="geometry" />
        </mxCell>
        <mxCell id="Ln-0qqn0iWtLyIjcQI3Q-80" value="Descuento" style="text;strokeColor=none;fillColor=none;align=left;verticalAlign=middle;spacingLeft=4;spacingRight=4;overflow=hidden;points=[[0,0.5],[1,0.5]];portConstraint=eastwest;rotatable=0;whiteSpace=wrap;html=1;" vertex="1" parent="Ln-0qqn0iWtLyIjcQI3Q-75">
          <mxGeometry y="150" width="140" height="30" as="geometry" />
        </mxCell>
        <mxCell id="Ln-0qqn0iWtLyIjcQI3Q-81" value="Cuenta" style="swimlane;fontStyle=0;childLayout=stackLayout;horizontal=1;startSize=30;horizontalStack=0;resizeParent=1;resizeParentMax=0;resizeLast=0;collapsible=1;marginBottom=0;whiteSpace=wrap;html=1;" vertex="1" parent="1">
          <mxGeometry x="307" y="524" width="140" height="240" as="geometry">
            <mxRectangle x="340" y="270" width="100" height="30" as="alternateBounds" />
          </mxGeometry>
        </mxCell>
        <mxCell id="Ln-0qqn0iWtLyIjcQI3Q-82" value="ID Cuenta" style="text;strokeColor=none;fillColor=none;align=left;verticalAlign=middle;spacingLeft=4;spacingRight=4;overflow=hidden;points=[[0,0.5],[1,0.5]];portConstraint=eastwest;rotatable=0;whiteSpace=wrap;html=1;fontStyle=1" vertex="1" parent="Ln-0qqn0iWtLyIjcQI3Q-81">
          <mxGeometry y="30" width="140" height="30" as="geometry" />
        </mxCell>
        <mxCell id="Ln-0qqn0iWtLyIjcQI3Q-83" value="IP" style="text;strokeColor=none;fillColor=none;align=left;verticalAlign=middle;spacingLeft=4;spacingRight=4;overflow=hidden;points=[[0,0.5],[1,0.5]];portConstraint=eastwest;rotatable=0;whiteSpace=wrap;html=1;" vertex="1" parent="Ln-0qqn0iWtLyIjcQI3Q-81">
          <mxGeometry y="60" width="140" height="30" as="geometry" />
        </mxCell>
        <mxCell id="Ln-0qqn0iWtLyIjcQI3Q-84" value="Situación cuenta" style="text;strokeColor=none;fillColor=none;align=left;verticalAlign=middle;spacingLeft=4;spacingRight=4;overflow=hidden;points=[[0,0.5],[1,0.5]];portConstraint=eastwest;rotatable=0;whiteSpace=wrap;html=1;" vertex="1" parent="Ln-0qqn0iWtLyIjcQI3Q-81">
          <mxGeometry y="90" width="140" height="30" as="geometry" />
        </mxCell>
        <mxCell id="Ln-0qqn0iWtLyIjcQI3Q-85" value="Fecha registro" style="text;strokeColor=none;fillColor=none;align=left;verticalAlign=middle;spacingLeft=4;spacingRight=4;overflow=hidden;points=[[0,0.5],[1,0.5]];portConstraint=eastwest;rotatable=0;whiteSpace=wrap;html=1;" vertex="1" parent="Ln-0qqn0iWtLyIjcQI3Q-81">
          <mxGeometry y="120" width="140" height="30" as="geometry" />
        </mxCell>
        <mxCell id="Ln-0qqn0iWtLyIjcQI3Q-86" value="Método de pago" style="text;strokeColor=none;fillColor=none;align=left;verticalAlign=middle;spacingLeft=4;spacingRight=4;overflow=hidden;points=[[0,0.5],[1,0.5]];portConstraint=eastwest;rotatable=0;whiteSpace=wrap;html=1;" vertex="1" parent="Ln-0qqn0iWtLyIjcQI3Q-81">
          <mxGeometry y="150" width="140" height="30" as="geometry" />
        </mxCell>
        <mxCell id="Ln-0qqn0iWtLyIjcQI3Q-87" value="Contraseña" style="text;strokeColor=none;fillColor=none;align=left;verticalAlign=middle;spacingLeft=4;spacingRight=4;overflow=hidden;points=[[0,0.5],[1,0.5]];portConstraint=eastwest;rotatable=0;whiteSpace=wrap;html=1;" vertex="1" parent="Ln-0qqn0iWtLyIjcQI3Q-81">
          <mxGeometry y="180" width="140" height="30" as="geometry" />
        </mxCell>
        <mxCell id="Ln-0qqn0iWtLyIjcQI3Q-88" value="Correo" style="text;strokeColor=none;fillColor=none;align=left;verticalAlign=middle;spacingLeft=4;spacingRight=4;overflow=hidden;points=[[0,0.5],[1,0.5]];portConstraint=eastwest;rotatable=0;whiteSpace=wrap;html=1;" vertex="1" parent="Ln-0qqn0iWtLyIjcQI3Q-81">
          <mxGeometry y="210" width="140" height="30" as="geometry" />
        </mxCell>
        <mxCell id="Ln-0qqn0iWtLyIjcQI3Q-89" value="Usuario" style="swimlane;fontStyle=0;childLayout=stackLayout;horizontal=1;startSize=30;horizontalStack=0;resizeParent=1;resizeParentMax=0;resizeLast=0;collapsible=1;marginBottom=0;whiteSpace=wrap;html=1;" vertex="1" parent="1">
          <mxGeometry x="307" y="919" width="140" height="150" as="geometry">
            <mxRectangle x="340" y="270" width="100" height="30" as="alternateBounds" />
          </mxGeometry>
        </mxCell>
        <mxCell id="Ln-0qqn0iWtLyIjcQI3Q-90" value="ID Usuario&lt;span style=&quot;white-space: pre;&quot;&gt; &lt;/span&gt;" style="text;strokeColor=none;fillColor=none;align=left;verticalAlign=middle;spacingLeft=4;spacingRight=4;overflow=hidden;points=[[0,0.5],[1,0.5]];portConstraint=eastwest;rotatable=0;whiteSpace=wrap;html=1;fontStyle=1" vertex="1" parent="Ln-0qqn0iWtLyIjcQI3Q-89">
          <mxGeometry y="30" width="140" height="30" as="geometry" />
        </mxCell>
        <mxCell id="Ln-0qqn0iWtLyIjcQI3Q-91" value="Idioma config" style="text;strokeColor=none;fillColor=none;align=left;verticalAlign=middle;spacingLeft=4;spacingRight=4;overflow=hidden;points=[[0,0.5],[1,0.5]];portConstraint=eastwest;rotatable=0;whiteSpace=wrap;html=1;" vertex="1" parent="Ln-0qqn0iWtLyIjcQI3Q-89">
          <mxGeometry y="60" width="140" height="30" as="geometry" />
        </mxCell>
        <mxCell id="Ln-0qqn0iWtLyIjcQI3Q-92" value="Nombre" style="text;strokeColor=none;fillColor=none;align=left;verticalAlign=middle;spacingLeft=4;spacingRight=4;overflow=hidden;points=[[0,0.5],[1,0.5]];portConstraint=eastwest;rotatable=0;whiteSpace=wrap;html=1;" vertex="1" parent="Ln-0qqn0iWtLyIjcQI3Q-89">
          <mxGeometry y="90" width="140" height="30" as="geometry" />
        </mxCell>
        <mxCell id="Ln-0qqn0iWtLyIjcQI3Q-93" value="Menor de edad" style="text;strokeColor=none;fillColor=none;align=left;verticalAlign=middle;spacingLeft=4;spacingRight=4;overflow=hidden;points=[[0,0.5],[1,0.5]];portConstraint=eastwest;rotatable=0;whiteSpace=wrap;html=1;" vertex="1" parent="Ln-0qqn0iWtLyIjcQI3Q-89">
          <mxGeometry y="120" width="140" height="30" as="geometry" />
        </mxCell>
        <mxCell id="Ln-0qqn0iWtLyIjcQI3Q-94" value="Contenido" style="swimlane;fontStyle=0;childLayout=stackLayout;horizontal=1;startSize=30;horizontalStack=0;resizeParent=1;resizeParentMax=0;resizeLast=0;collapsible=1;marginBottom=0;whiteSpace=wrap;html=1;" vertex="1" parent="1">
          <mxGeometry x="839" y="829" width="140" height="240" as="geometry">
            <mxRectangle x="340" y="270" width="100" height="30" as="alternateBounds" />
          </mxGeometry>
        </mxCell>
        <mxCell id="Ln-0qqn0iWtLyIjcQI3Q-95" value="Título original" style="text;strokeColor=none;fillColor=none;align=left;verticalAlign=middle;spacingLeft=4;spacingRight=4;overflow=hidden;points=[[0,0.5],[1,0.5]];portConstraint=eastwest;rotatable=0;whiteSpace=wrap;html=1;fontStyle=1" vertex="1" parent="Ln-0qqn0iWtLyIjcQI3Q-94">
          <mxGeometry y="30" width="140" height="30" as="geometry" />
        </mxCell>
        <mxCell id="Ln-0qqn0iWtLyIjcQI3Q-96" value="Reparto" style="text;strokeColor=none;fillColor=none;align=left;verticalAlign=middle;spacingLeft=4;spacingRight=4;overflow=hidden;points=[[0,0.5],[1,0.5]];portConstraint=eastwest;rotatable=0;whiteSpace=wrap;html=1;" vertex="1" parent="Ln-0qqn0iWtLyIjcQI3Q-94">
          <mxGeometry y="60" width="140" height="30" as="geometry" />
        </mxCell>
        <mxCell id="Ln-0qqn0iWtLyIjcQI3Q-97" value="Productor" style="text;strokeColor=none;fillColor=none;align=left;verticalAlign=middle;spacingLeft=4;spacingRight=4;overflow=hidden;points=[[0,0.5],[1,0.5]];portConstraint=eastwest;rotatable=0;whiteSpace=wrap;html=1;" vertex="1" parent="Ln-0qqn0iWtLyIjcQI3Q-94">
          <mxGeometry y="90" width="140" height="30" as="geometry" />
        </mxCell>
        <mxCell id="Ln-0qqn0iWtLyIjcQI3Q-98" value="Duración" style="text;strokeColor=none;fillColor=none;align=left;verticalAlign=middle;spacingLeft=4;spacingRight=4;overflow=hidden;points=[[0,0.5],[1,0.5]];portConstraint=eastwest;rotatable=0;whiteSpace=wrap;html=1;" vertex="1" parent="Ln-0qqn0iWtLyIjcQI3Q-94">
          <mxGeometry y="120" width="140" height="30" as="geometry" />
        </mxCell>
        <mxCell id="Ln-0qqn0iWtLyIjcQI3Q-99" value="Calificación" style="text;strokeColor=none;fillColor=none;align=left;verticalAlign=middle;spacingLeft=4;spacingRight=4;overflow=hidden;points=[[0,0.5],[1,0.5]];portConstraint=eastwest;rotatable=0;whiteSpace=wrap;html=1;" vertex="1" parent="Ln-0qqn0iWtLyIjcQI3Q-94">
          <mxGeometry y="150" width="140" height="30" as="geometry" />
        </mxCell>
        <mxCell id="Ln-0qqn0iWtLyIjcQI3Q-100" value="Director" style="text;strokeColor=none;fillColor=none;align=left;verticalAlign=middle;spacingLeft=4;spacingRight=4;overflow=hidden;points=[[0,0.5],[1,0.5]];portConstraint=eastwest;rotatable=0;whiteSpace=wrap;html=1;" vertex="1" parent="Ln-0qqn0iWtLyIjcQI3Q-94">
          <mxGeometry y="180" width="140" height="30" as="geometry" />
        </mxCell>
        <mxCell id="Ln-0qqn0iWtLyIjcQI3Q-101" value="Tema" style="text;strokeColor=none;fillColor=none;align=left;verticalAlign=middle;spacingLeft=4;spacingRight=4;overflow=hidden;points=[[0,0.5],[1,0.5]];portConstraint=eastwest;rotatable=0;whiteSpace=wrap;html=1;" vertex="1" parent="Ln-0qqn0iWtLyIjcQI3Q-94">
          <mxGeometry y="210" width="140" height="30" as="geometry" />
        </mxCell>
        <mxCell id="Ln-0qqn0iWtLyIjcQI3Q-102" value="Abona" style="swimlane;fontStyle=0;childLayout=stackLayout;horizontal=1;startSize=30;horizontalStack=0;resizeParent=1;resizeParentMax=0;resizeLast=0;collapsible=1;marginBottom=0;whiteSpace=wrap;html=1;" vertex="1" parent="1">
          <mxGeometry x="487" y="524" width="140" height="90" as="geometry">
            <mxRectangle x="340" y="270" width="100" height="30" as="alternateBounds" />
          </mxGeometry>
        </mxCell>
        <mxCell id="Ln-0qqn0iWtLyIjcQI3Q-103" value="ID Suscripción" style="text;strokeColor=none;fillColor=none;align=left;verticalAlign=middle;spacingLeft=4;spacingRight=4;overflow=hidden;points=[[0,0.5],[1,0.5]];portConstraint=eastwest;rotatable=0;whiteSpace=wrap;html=1;fontStyle=1" vertex="1" parent="Ln-0qqn0iWtLyIjcQI3Q-102">
          <mxGeometry y="30" width="140" height="30" as="geometry" />
        </mxCell>
        <mxCell id="Ln-0qqn0iWtLyIjcQI3Q-104" value="&lt;span style=&quot;font-weight: normal;&quot;&gt;ID Cuenta&lt;/span&gt;" style="text;strokeColor=none;fillColor=none;align=left;verticalAlign=middle;spacingLeft=4;spacingRight=4;overflow=hidden;points=[[0,0.5],[1,0.5]];portConstraint=eastwest;rotatable=0;whiteSpace=wrap;html=1;fontStyle=1" vertex="1" parent="Ln-0qqn0iWtLyIjcQI3Q-102">
          <mxGeometry y="60" width="140" height="30" as="geometry" />
        </mxCell>
        <mxCell id="Ln-0qqn0iWtLyIjcQI3Q-105" value="Tiene Usuarios" style="swimlane;fontStyle=0;childLayout=stackLayout;horizontal=1;startSize=30;horizontalStack=0;resizeParent=1;resizeParentMax=0;resizeLast=0;collapsible=1;marginBottom=0;whiteSpace=wrap;html=1;" vertex="1" parent="1">
          <mxGeometry x="307" y="804" width="140" height="90" as="geometry">
            <mxRectangle x="340" y="270" width="100" height="30" as="alternateBounds" />
          </mxGeometry>
        </mxCell>
        <mxCell id="Ln-0qqn0iWtLyIjcQI3Q-106" value="ID Usuario" style="text;strokeColor=none;fillColor=none;align=left;verticalAlign=middle;spacingLeft=4;spacingRight=4;overflow=hidden;points=[[0,0.5],[1,0.5]];portConstraint=eastwest;rotatable=0;whiteSpace=wrap;html=1;fontStyle=1" vertex="1" parent="Ln-0qqn0iWtLyIjcQI3Q-105">
          <mxGeometry y="30" width="140" height="30" as="geometry" />
        </mxCell>
        <mxCell id="Ln-0qqn0iWtLyIjcQI3Q-107" value="ID Cuenta" style="text;strokeColor=none;fillColor=none;align=left;verticalAlign=middle;spacingLeft=4;spacingRight=4;overflow=hidden;points=[[0,0.5],[1,0.5]];portConstraint=eastwest;rotatable=0;whiteSpace=wrap;html=1;" vertex="1" parent="Ln-0qqn0iWtLyIjcQI3Q-105">
          <mxGeometry y="60" width="140" height="30" as="geometry" />
        </mxCell>
        <mxCell id="Ln-0qqn0iWtLyIjcQI3Q-108" value="Asocia" style="swimlane;fontStyle=0;childLayout=stackLayout;horizontal=1;startSize=30;horizontalStack=0;resizeParent=1;resizeParentMax=0;resizeLast=0;collapsible=1;marginBottom=0;whiteSpace=wrap;html=1;" vertex="1" parent="1">
          <mxGeometry x="307" y="1105" width="140" height="90" as="geometry">
            <mxRectangle x="340" y="270" width="100" height="30" as="alternateBounds" />
          </mxGeometry>
        </mxCell>
        <mxCell id="Ln-0qqn0iWtLyIjcQI3Q-109" value="ID Usuario" style="text;strokeColor=none;fillColor=none;align=left;verticalAlign=middle;spacingLeft=4;spacingRight=4;overflow=hidden;points=[[0,0.5],[1,0.5]];portConstraint=eastwest;rotatable=0;whiteSpace=wrap;html=1;fontStyle=1" vertex="1" parent="Ln-0qqn0iWtLyIjcQI3Q-108">
          <mxGeometry y="30" width="140" height="30" as="geometry" />
        </mxCell>
        <mxCell id="Ln-0qqn0iWtLyIjcQI3Q-110" value="ID Dispositivo" style="text;strokeColor=none;fillColor=none;align=left;verticalAlign=middle;spacingLeft=4;spacingRight=4;overflow=hidden;points=[[0,0.5],[1,0.5]];portConstraint=eastwest;rotatable=0;whiteSpace=wrap;html=1;" vertex="1" parent="Ln-0qqn0iWtLyIjcQI3Q-108">
          <mxGeometry y="60" width="140" height="30" as="geometry" />
        </mxCell>
        <mxCell id="Ln-0qqn0iWtLyIjcQI3Q-111" value="Historial reproducción" style="swimlane;fontStyle=0;childLayout=stackLayout;horizontal=1;startSize=30;horizontalStack=0;resizeParent=1;resizeParentMax=0;resizeLast=0;collapsible=1;marginBottom=0;whiteSpace=wrap;html=1;" vertex="1" parent="1">
          <mxGeometry x="493" y="1014" width="140" height="150" as="geometry">
            <mxRectangle x="340" y="270" width="100" height="30" as="alternateBounds" />
          </mxGeometry>
        </mxCell>
        <mxCell id="Ln-0qqn0iWtLyIjcQI3Q-112" value="ID Usuario" style="text;strokeColor=none;fillColor=none;align=left;verticalAlign=middle;spacingLeft=4;spacingRight=4;overflow=hidden;points=[[0,0.5],[1,0.5]];portConstraint=eastwest;rotatable=0;whiteSpace=wrap;html=1;fontStyle=1" vertex="1" parent="Ln-0qqn0iWtLyIjcQI3Q-111">
          <mxGeometry y="30" width="140" height="30" as="geometry" />
        </mxCell>
        <mxCell id="Ln-0qqn0iWtLyIjcQI3Q-113" value="Título original" style="text;strokeColor=none;fillColor=none;align=left;verticalAlign=middle;spacingLeft=4;spacingRight=4;overflow=hidden;points=[[0,0.5],[1,0.5]];portConstraint=eastwest;rotatable=0;whiteSpace=wrap;html=1;" vertex="1" parent="Ln-0qqn0iWtLyIjcQI3Q-111">
          <mxGeometry y="60" width="140" height="30" as="geometry" />
        </mxCell>
        <mxCell id="Ln-0qqn0iWtLyIjcQI3Q-114" value="Tiempo visto" style="text;strokeColor=none;fillColor=none;align=left;verticalAlign=middle;spacingLeft=4;spacingRight=4;overflow=hidden;points=[[0,0.5],[1,0.5]];portConstraint=eastwest;rotatable=0;whiteSpace=wrap;html=1;" vertex="1" parent="Ln-0qqn0iWtLyIjcQI3Q-111">
          <mxGeometry y="90" width="140" height="30" as="geometry" />
        </mxCell>
        <mxCell id="Ln-0qqn0iWtLyIjcQI3Q-115" value="Valoración" style="text;strokeColor=none;fillColor=none;align=left;verticalAlign=middle;spacingLeft=4;spacingRight=4;overflow=hidden;points=[[0,0.5],[1,0.5]];portConstraint=eastwest;rotatable=0;whiteSpace=wrap;html=1;" vertex="1" parent="Ln-0qqn0iWtLyIjcQI3Q-111">
          <mxGeometry y="120" width="140" height="30" as="geometry" />
        </mxCell>
        <mxCell id="Ln-0qqn0iWtLyIjcQI3Q-116" value="Lista favoritos" style="swimlane;fontStyle=0;childLayout=stackLayout;horizontal=1;startSize=30;horizontalStack=0;resizeParent=1;resizeParentMax=0;resizeLast=0;collapsible=1;marginBottom=0;whiteSpace=wrap;html=1;" vertex="1" parent="1">
          <mxGeometry x="493" y="814" width="140" height="120" as="geometry">
            <mxRectangle x="340" y="270" width="100" height="30" as="alternateBounds" />
          </mxGeometry>
        </mxCell>
        <mxCell id="Ln-0qqn0iWtLyIjcQI3Q-117" value="ID Usuario" style="text;strokeColor=none;fillColor=none;align=left;verticalAlign=middle;spacingLeft=4;spacingRight=4;overflow=hidden;points=[[0,0.5],[1,0.5]];portConstraint=eastwest;rotatable=0;whiteSpace=wrap;html=1;fontStyle=1" vertex="1" parent="Ln-0qqn0iWtLyIjcQI3Q-116">
          <mxGeometry y="30" width="140" height="30" as="geometry" />
        </mxCell>
        <mxCell id="Ln-0qqn0iWtLyIjcQI3Q-118" value="Título original" style="text;strokeColor=none;fillColor=none;align=left;verticalAlign=middle;spacingLeft=4;spacingRight=4;overflow=hidden;points=[[0,0.5],[1,0.5]];portConstraint=eastwest;rotatable=0;whiteSpace=wrap;html=1;" vertex="1" parent="Ln-0qqn0iWtLyIjcQI3Q-116">
          <mxGeometry y="60" width="140" height="30" as="geometry" />
        </mxCell>
        <mxCell id="Ln-0qqn0iWtLyIjcQI3Q-119" value="Favoritos" style="text;strokeColor=none;fillColor=none;align=left;verticalAlign=middle;spacingLeft=4;spacingRight=4;overflow=hidden;points=[[0,0.5],[1,0.5]];portConstraint=eastwest;rotatable=0;whiteSpace=wrap;html=1;" vertex="1" parent="Ln-0qqn0iWtLyIjcQI3Q-116">
          <mxGeometry y="90" width="140" height="30" as="geometry" />
        </mxCell>
        <mxCell id="Ln-0qqn0iWtLyIjcQI3Q-120" value="Descargar" style="swimlane;fontStyle=0;childLayout=stackLayout;horizontal=1;startSize=30;horizontalStack=0;resizeParent=1;resizeParentMax=0;resizeLast=0;collapsible=1;marginBottom=0;whiteSpace=wrap;html=1;" vertex="1" parent="1">
          <mxGeometry x="653" y="859" width="140" height="180" as="geometry">
            <mxRectangle x="340" y="270" width="100" height="30" as="alternateBounds" />
          </mxGeometry>
        </mxCell>
        <mxCell id="Ln-0qqn0iWtLyIjcQI3Q-121" value="ID Usuario" style="text;strokeColor=none;fillColor=none;align=left;verticalAlign=middle;spacingLeft=4;spacingRight=4;overflow=hidden;points=[[0,0.5],[1,0.5]];portConstraint=eastwest;rotatable=0;whiteSpace=wrap;html=1;fontStyle=1" vertex="1" parent="Ln-0qqn0iWtLyIjcQI3Q-120">
          <mxGeometry y="30" width="140" height="30" as="geometry" />
        </mxCell>
        <mxCell id="Ln-0qqn0iWtLyIjcQI3Q-122" value="Título original" style="text;strokeColor=none;fillColor=none;align=left;verticalAlign=middle;spacingLeft=4;spacingRight=4;overflow=hidden;points=[[0,0.5],[1,0.5]];portConstraint=eastwest;rotatable=0;whiteSpace=wrap;html=1;" vertex="1" parent="Ln-0qqn0iWtLyIjcQI3Q-120">
          <mxGeometry y="60" width="140" height="30" as="geometry" />
        </mxCell>
        <mxCell id="Ln-0qqn0iWtLyIjcQI3Q-123" value="Descargas" style="text;strokeColor=none;fillColor=none;align=left;verticalAlign=middle;spacingLeft=4;spacingRight=4;overflow=hidden;points=[[0,0.5],[1,0.5]];portConstraint=eastwest;rotatable=0;whiteSpace=wrap;html=1;" vertex="1" parent="Ln-0qqn0iWtLyIjcQI3Q-120">
          <mxGeometry y="90" width="140" height="30" as="geometry" />
        </mxCell>
        <mxCell id="Ln-0qqn0iWtLyIjcQI3Q-124" value="Duración" style="text;strokeColor=none;fillColor=none;align=left;verticalAlign=middle;spacingLeft=4;spacingRight=4;overflow=hidden;points=[[0,0.5],[1,0.5]];portConstraint=eastwest;rotatable=0;whiteSpace=wrap;html=1;" vertex="1" parent="Ln-0qqn0iWtLyIjcQI3Q-120">
          <mxGeometry y="120" width="140" height="30" as="geometry" />
        </mxCell>
        <mxCell id="Ln-0qqn0iWtLyIjcQI3Q-125" value="Calidad" style="text;strokeColor=none;fillColor=none;align=left;verticalAlign=middle;spacingLeft=4;spacingRight=4;overflow=hidden;points=[[0,0.5],[1,0.5]];portConstraint=eastwest;rotatable=0;whiteSpace=wrap;html=1;" vertex="1" parent="Ln-0qqn0iWtLyIjcQI3Q-120">
          <mxGeometry y="150" width="140" height="30" as="geometry" />
        </mxCell>
        <mxCell id="Ln-0qqn0iWtLyIjcQI3Q-126" style="edgeStyle=orthogonalEdgeStyle;rounded=0;orthogonalLoop=1;jettySize=auto;html=1;exitX=1;exitY=0.5;exitDx=0;exitDy=0;entryX=0;entryY=0.5;entryDx=0;entryDy=0;" edge="1" parent="1" source="Ln-0qqn0iWtLyIjcQI3Q-103" target="Ln-0qqn0iWtLyIjcQI3Q-76">
          <mxGeometry relative="1" as="geometry" />
        </mxCell>
        <mxCell id="Ln-0qqn0iWtLyIjcQI3Q-127" value="Dispositivo" style="swimlane;fontStyle=0;childLayout=stackLayout;horizontal=1;startSize=30;horizontalStack=0;resizeParent=1;resizeParentMax=0;resizeLast=0;collapsible=1;marginBottom=0;whiteSpace=wrap;html=1;" vertex="1" parent="1">
          <mxGeometry x="307" y="1244" width="140" height="180" as="geometry">
            <mxRectangle x="340" y="270" width="100" height="30" as="alternateBounds" />
          </mxGeometry>
        </mxCell>
        <mxCell id="Ln-0qqn0iWtLyIjcQI3Q-128" value="ID Dispositivo&lt;span style=&quot;white-space: pre;&quot;&gt; &lt;/span&gt;" style="text;strokeColor=none;fillColor=none;align=left;verticalAlign=middle;spacingLeft=4;spacingRight=4;overflow=hidden;points=[[0,0.5],[1,0.5]];portConstraint=eastwest;rotatable=0;whiteSpace=wrap;html=1;fontStyle=1" vertex="1" parent="Ln-0qqn0iWtLyIjcQI3Q-127">
          <mxGeometry y="30" width="140" height="30" as="geometry" />
        </mxCell>
        <mxCell id="Ln-0qqn0iWtLyIjcQI3Q-129" value="Tipo" style="text;strokeColor=none;fillColor=none;align=left;verticalAlign=middle;spacingLeft=4;spacingRight=4;overflow=hidden;points=[[0,0.5],[1,0.5]];portConstraint=eastwest;rotatable=0;whiteSpace=wrap;html=1;" vertex="1" parent="Ln-0qqn0iWtLyIjcQI3Q-127">
          <mxGeometry y="60" width="140" height="30" as="geometry" />
        </mxCell>
        <mxCell id="Ln-0qqn0iWtLyIjcQI3Q-130" value="Inteligente" style="text;strokeColor=none;fillColor=none;align=left;verticalAlign=middle;spacingLeft=4;spacingRight=4;overflow=hidden;points=[[0,0.5],[1,0.5]];portConstraint=eastwest;rotatable=0;whiteSpace=wrap;html=1;" vertex="1" parent="Ln-0qqn0iWtLyIjcQI3Q-127">
          <mxGeometry y="90" width="140" height="30" as="geometry" />
        </mxCell>
        <mxCell id="Ln-0qqn0iWtLyIjcQI3Q-131" value="Casting" style="text;strokeColor=none;fillColor=none;align=left;verticalAlign=middle;spacingLeft=4;spacingRight=4;overflow=hidden;points=[[0,0.5],[1,0.5]];portConstraint=eastwest;rotatable=0;whiteSpace=wrap;html=1;" vertex="1" parent="Ln-0qqn0iWtLyIjcQI3Q-127">
          <mxGeometry y="120" width="140" height="30" as="geometry" />
        </mxCell>
        <mxCell id="Ln-0qqn0iWtLyIjcQI3Q-132" value="Peso dispositivo" style="text;strokeColor=none;fillColor=none;align=left;verticalAlign=middle;spacingLeft=4;spacingRight=4;overflow=hidden;points=[[0,0.5],[1,0.5]];portConstraint=eastwest;rotatable=0;whiteSpace=wrap;html=1;" vertex="1" parent="Ln-0qqn0iWtLyIjcQI3Q-127">
          <mxGeometry y="150" width="140" height="30" as="geometry" />
        </mxCell>
        <mxCell id="Ln-0qqn0iWtLyIjcQI3Q-133" value="Reproducir" style="swimlane;fontStyle=0;childLayout=stackLayout;horizontal=1;startSize=30;horizontalStack=0;resizeParent=1;resizeParentMax=0;resizeLast=0;collapsible=1;marginBottom=0;whiteSpace=wrap;html=1;" vertex="1" parent="1">
          <mxGeometry x="487" y="1244" width="140" height="90" as="geometry">
            <mxRectangle x="340" y="270" width="100" height="30" as="alternateBounds" />
          </mxGeometry>
        </mxCell>
        <mxCell id="Ln-0qqn0iWtLyIjcQI3Q-134" value="&lt;b&gt;Título original&lt;/b&gt;" style="text;strokeColor=none;fillColor=none;align=left;verticalAlign=middle;spacingLeft=4;spacingRight=4;overflow=hidden;points=[[0,0.5],[1,0.5]];portConstraint=eastwest;rotatable=0;whiteSpace=wrap;html=1;" vertex="1" parent="Ln-0qqn0iWtLyIjcQI3Q-133">
          <mxGeometry y="30" width="140" height="30" as="geometry" />
        </mxCell>
        <mxCell id="Ln-0qqn0iWtLyIjcQI3Q-135" value="&lt;span style=&quot;font-weight: normal;&quot;&gt;ID Dispositivo&lt;/span&gt;" style="text;strokeColor=none;fillColor=none;align=left;verticalAlign=middle;spacingLeft=4;spacingRight=4;overflow=hidden;points=[[0,0.5],[1,0.5]];portConstraint=eastwest;rotatable=0;whiteSpace=wrap;html=1;fontStyle=1" vertex="1" parent="Ln-0qqn0iWtLyIjcQI3Q-133">
          <mxGeometry y="60" width="140" height="30" as="geometry" />
        </mxCell>
        <mxCell id="Ln-0qqn0iWtLyIjcQI3Q-136" style="edgeStyle=orthogonalEdgeStyle;rounded=0;orthogonalLoop=1;jettySize=auto;html=1;exitX=1;exitY=0.5;exitDx=0;exitDy=0;" edge="1" parent="Ln-0qqn0iWtLyIjcQI3Q-133" source="Ln-0qqn0iWtLyIjcQI3Q-134">
          <mxGeometry relative="1" as="geometry">
            <mxPoint x="420" y="-170" as="targetPoint" />
          </mxGeometry>
        </mxCell>
        <mxCell id="Ln-0qqn0iWtLyIjcQI3Q-137" style="edgeStyle=orthogonalEdgeStyle;rounded=0;orthogonalLoop=1;jettySize=auto;html=1;exitX=1;exitY=0.5;exitDx=0;exitDy=0;entryX=0;entryY=0.5;entryDx=0;entryDy=0;" edge="1" parent="1" source="Ln-0qqn0iWtLyIjcQI3Q-91" target="Ln-0qqn0iWtLyIjcQI3Q-113">
          <mxGeometry relative="1" as="geometry" />
        </mxCell>
        <mxCell id="Ln-0qqn0iWtLyIjcQI3Q-138" style="edgeStyle=orthogonalEdgeStyle;rounded=0;orthogonalLoop=1;jettySize=auto;html=1;exitX=1;exitY=0.5;exitDx=0;exitDy=0;entryX=0;entryY=0.5;entryDx=0;entryDy=0;" edge="1" parent="1" source="Ln-0qqn0iWtLyIjcQI3Q-91" target="Ln-0qqn0iWtLyIjcQI3Q-118">
          <mxGeometry relative="1" as="geometry" />
        </mxCell>
        <mxCell id="Ln-0qqn0iWtLyIjcQI3Q-139" style="edgeStyle=orthogonalEdgeStyle;rounded=0;orthogonalLoop=1;jettySize=auto;html=1;exitX=1;exitY=0.5;exitDx=0;exitDy=0;entryX=0;entryY=0.5;entryDx=0;entryDy=0;" edge="1" parent="1" source="Ln-0qqn0iWtLyIjcQI3Q-91" target="Ln-0qqn0iWtLyIjcQI3Q-124">
          <mxGeometry relative="1" as="geometry" />
        </mxCell>
        <mxCell id="Ln-0qqn0iWtLyIjcQI3Q-140" style="edgeStyle=orthogonalEdgeStyle;rounded=0;orthogonalLoop=1;jettySize=auto;html=1;exitX=1;exitY=0.5;exitDx=0;exitDy=0;entryX=0;entryY=0.5;entryDx=0;entryDy=0;" edge="1" parent="1" source="Ln-0qqn0iWtLyIjcQI3Q-118" target="Ln-0qqn0iWtLyIjcQI3Q-98">
          <mxGeometry relative="1" as="geometry">
            <Array as="points">
              <mxPoint x="643" y="889" />
              <mxPoint x="643" y="844" />
              <mxPoint x="823" y="844" />
              <mxPoint x="823" y="964" />
            </Array>
          </mxGeometry>
        </mxCell>
        <mxCell id="Ln-0qqn0iWtLyIjcQI3Q-141" style="edgeStyle=orthogonalEdgeStyle;rounded=0;orthogonalLoop=1;jettySize=auto;html=1;exitX=1;exitY=0.5;exitDx=0;exitDy=0;entryX=0;entryY=0.5;entryDx=0;entryDy=0;" edge="1" parent="1" source="Ln-0qqn0iWtLyIjcQI3Q-113" target="Ln-0qqn0iWtLyIjcQI3Q-98">
          <mxGeometry relative="1" as="geometry">
            <Array as="points">
              <mxPoint x="823" y="1089" />
              <mxPoint x="823" y="964" />
            </Array>
          </mxGeometry>
        </mxCell>
        <mxCell id="Ln-0qqn0iWtLyIjcQI3Q-142" style="edgeStyle=orthogonalEdgeStyle;rounded=0;orthogonalLoop=1;jettySize=auto;html=1;exitX=1;exitY=0.5;exitDx=0;exitDy=0;entryX=0;entryY=0.5;entryDx=0;entryDy=0;" edge="1" parent="1" source="Ln-0qqn0iWtLyIjcQI3Q-123" target="Ln-0qqn0iWtLyIjcQI3Q-98">
          <mxGeometry relative="1" as="geometry" />
        </mxCell>
        <mxCell id="Ln-0qqn0iWtLyIjcQI3Q-143" value="" style="endArrow=classic;html=1;rounded=0;" edge="1" parent="1">
          <mxGeometry width="50" height="50" relative="1" as="geometry">
            <mxPoint x="383" y="1195" as="sourcePoint" />
            <mxPoint x="383" y="1245" as="targetPoint" />
          </mxGeometry>
        </mxCell>
        <mxCell id="Ln-0qqn0iWtLyIjcQI3Q-144" value="" style="endArrow=classic;html=1;rounded=0;" edge="1" parent="1">
          <mxGeometry width="50" height="50" relative="1" as="geometry">
            <mxPoint x="376.5" y="1070" as="sourcePoint" />
            <mxPoint x="376" y="1105" as="targetPoint" />
          </mxGeometry>
        </mxCell>
        <mxCell id="Ln-0qqn0iWtLyIjcQI3Q-145" style="edgeStyle=orthogonalEdgeStyle;rounded=0;orthogonalLoop=1;jettySize=auto;html=1;exitX=1;exitY=0.5;exitDx=0;exitDy=0;entryX=0;entryY=0.5;entryDx=0;entryDy=0;" edge="1" parent="1" source="Ln-0qqn0iWtLyIjcQI3Q-128" target="Ln-0qqn0iWtLyIjcQI3Q-135">
          <mxGeometry relative="1" as="geometry" />
        </mxCell>
        <mxCell id="Ln-0qqn0iWtLyIjcQI3Q-146" value="" style="endArrow=classic;html=1;rounded=0;" edge="1" parent="1">
          <mxGeometry width="50" height="50" relative="1" as="geometry">
            <mxPoint x="376.5" y="764" as="sourcePoint" />
            <mxPoint x="376" y="804" as="targetPoint" />
          </mxGeometry>
        </mxCell>
        <mxCell id="Ln-0qqn0iWtLyIjcQI3Q-147" value="" style="endArrow=classic;html=1;rounded=0;entryX=0.5;entryY=0;entryDx=0;entryDy=0;" edge="1" parent="1" target="Ln-0qqn0iWtLyIjcQI3Q-89">
          <mxGeometry width="50" height="50" relative="1" as="geometry">
            <mxPoint x="377" y="894" as="sourcePoint" />
            <mxPoint x="376.5" y="934" as="targetPoint" />
          </mxGeometry>
        </mxCell>
        <mxCell id="Ln-0qqn0iWtLyIjcQI3Q-148" style="edgeStyle=orthogonalEdgeStyle;rounded=0;orthogonalLoop=1;jettySize=auto;html=1;exitX=1;exitY=0.5;exitDx=0;exitDy=0;entryX=0;entryY=0.5;entryDx=0;entryDy=0;" edge="1" parent="1" source="Ln-0qqn0iWtLyIjcQI3Q-82" target="Ln-0qqn0iWtLyIjcQI3Q-103">
          <mxGeometry relative="1" as="geometry" />
        </mxCell>
        <mxCell id="Ln-0qqn0iWtLyIjcQI3Q-149" value="&lt;b&gt;Suscripción&lt;/b&gt;" style="rounded=0;whiteSpace=wrap;html=1;fillColor=#f5f5f5;strokeColor=#666666;fontColor=#333333;shadow=1;" vertex="1" parent="1">
          <mxGeometry x="-1051" y="562" width="120" height="31" as="geometry" />
        </mxCell>
        <mxCell id="Ln-0qqn0iWtLyIjcQI3Q-150" value="&lt;b&gt;Usuario&lt;/b&gt;" style="rounded=0;whiteSpace=wrap;html=1;fillColor=#f5f5f5;strokeColor=#666666;fontColor=#333333;shadow=1;" vertex="1" parent="1">
          <mxGeometry x="-1475" y="1001.5" width="120" height="31" as="geometry" />
        </mxCell>
        <mxCell id="Ln-0qqn0iWtLyIjcQI3Q-151" value="&lt;b&gt;Contenido&lt;/b&gt;" style="rounded=0;whiteSpace=wrap;html=1;fillColor=#f5f5f5;strokeColor=#666666;fontColor=#333333;shadow=1;" vertex="1" parent="1">
          <mxGeometry x="-904" y="1003" width="120" height="31" as="geometry" />
        </mxCell>
        <mxCell id="Ln-0qqn0iWtLyIjcQI3Q-152" value="&lt;b&gt;Dispositivo&lt;/b&gt;" style="rounded=0;whiteSpace=wrap;html=1;fillColor=#f5f5f5;strokeColor=#666666;fontColor=#333333;" vertex="1" parent="1">
          <mxGeometry x="-1290" y="1257" width="120" height="31" as="geometry" />
        </mxCell>
        <mxCell id="Ln-0qqn0iWtLyIjcQI3Q-153" value="&lt;u&gt;ID Cuenta&lt;/u&gt;" style="ellipse;whiteSpace=wrap;html=1;fillColor=#e1d5e7;strokeColor=#9673a6;gradientColor=none;" vertex="1" parent="1">
          <mxGeometry x="-1653" y="498" width="120" height="26" as="geometry" />
        </mxCell>
        <mxCell id="Ln-0qqn0iWtLyIjcQI3Q-154" value="IP" style="ellipse;whiteSpace=wrap;html=1;fillColor=#e1d5e7;strokeColor=#9673a6;gradientColor=none;" vertex="1" parent="1">
          <mxGeometry x="-1653" y="541" width="120" height="26" as="geometry" />
        </mxCell>
        <mxCell id="Ln-0qqn0iWtLyIjcQI3Q-155" value="Situación de cuenta" style="ellipse;whiteSpace=wrap;html=1;fillColor=#e1d5e7;strokeColor=#9673a6;gradientColor=none;" vertex="1" parent="1">
          <mxGeometry x="-1653" y="578.5" width="120" height="26" as="geometry" />
        </mxCell>
        <mxCell id="Ln-0qqn0iWtLyIjcQI3Q-156" value="Fecha registro" style="ellipse;whiteSpace=wrap;html=1;fillColor=#e1d5e7;strokeColor=#9673a6;gradientColor=none;" vertex="1" parent="1">
          <mxGeometry x="-1653" y="617" width="120" height="26" as="geometry" />
        </mxCell>
        <mxCell id="Ln-0qqn0iWtLyIjcQI3Q-157" value="Método de pago" style="ellipse;whiteSpace=wrap;html=1;fillColor=#e1d5e7;strokeColor=#9673a6;gradientColor=none;" vertex="1" parent="1">
          <mxGeometry x="-1653" y="660" width="120" height="26" as="geometry" />
        </mxCell>
        <mxCell id="Ln-0qqn0iWtLyIjcQI3Q-158" value="&lt;u&gt;ID Usuario&lt;/u&gt;" style="ellipse;whiteSpace=wrap;html=1;fillColor=#e1d5e7;strokeColor=#9673a6;gradientColor=none;" vertex="1" parent="1">
          <mxGeometry x="-1653" y="933" width="120" height="26" as="geometry" />
        </mxCell>
        <mxCell id="Ln-0qqn0iWtLyIjcQI3Q-159" value="Contraseña" style="ellipse;whiteSpace=wrap;html=1;fillColor=#e1d5e7;strokeColor=#9673a6;gradientColor=none;" vertex="1" parent="1">
          <mxGeometry x="-1653" y="706" width="120" height="26" as="geometry" />
        </mxCell>
        <mxCell id="Ln-0qqn0iWtLyIjcQI3Q-160" value="Correo Electrónico" style="ellipse;whiteSpace=wrap;html=1;fillColor=#e1d5e7;strokeColor=#9673a6;gradientColor=none;" vertex="1" parent="1">
          <mxGeometry x="-1653" y="447" width="120" height="26" as="geometry" />
        </mxCell>
        <mxCell id="Ln-0qqn0iWtLyIjcQI3Q-161" value="Nombre" style="ellipse;whiteSpace=wrap;html=1;fillColor=#e1d5e7;strokeColor=#9673a6;gradientColor=none;" vertex="1" parent="1">
          <mxGeometry x="-1651" y="1004" width="120" height="26" as="geometry" />
        </mxCell>
        <mxCell id="Ln-0qqn0iWtLyIjcQI3Q-162" value="Menor de edad" style="ellipse;whiteSpace=wrap;html=1;fillColor=#e1d5e7;strokeColor=#9673a6;gradientColor=none;" vertex="1" parent="1">
          <mxGeometry x="-1650" y="1078" width="124.5" height="26" as="geometry" />
        </mxCell>
        <mxCell id="Ln-0qqn0iWtLyIjcQI3Q-163" value="&lt;u&gt;ID Dispositivo&lt;/u&gt;" style="ellipse;whiteSpace=wrap;html=1;fillColor=#e1d5e7;strokeColor=#9673a6;gradientColor=none;" vertex="1" parent="1">
          <mxGeometry x="-1420" y="1293" width="120" height="26" as="geometry" />
        </mxCell>
        <mxCell id="Ln-0qqn0iWtLyIjcQI3Q-164" value="Tipo" style="ellipse;whiteSpace=wrap;html=1;fillColor=#e1d5e7;strokeColor=#9673a6;gradientColor=none;" vertex="1" parent="1">
          <mxGeometry x="-1394" y="1335" width="120" height="26" as="geometry" />
        </mxCell>
        <mxCell id="Ln-0qqn0iWtLyIjcQI3Q-165" value="Inteligente" style="ellipse;whiteSpace=wrap;html=1;fillColor=#e1d5e7;strokeColor=#9673a6;gradientColor=none;" vertex="1" parent="1">
          <mxGeometry x="-1298" y="1361" width="136" height="26" as="geometry" />
        </mxCell>
        <mxCell id="Ln-0qqn0iWtLyIjcQI3Q-166" value="Descargas" style="ellipse;whiteSpace=wrap;html=1;fillColor=#e1d5e7;strokeColor=#9673a6;gradientColor=none;" vertex="1" parent="1">
          <mxGeometry x="-1237" y="1164.5" width="77" height="26" as="geometry" />
        </mxCell>
        <mxCell id="Ln-0qqn0iWtLyIjcQI3Q-167" value="&lt;u&gt;Titulo original&lt;/u&gt;" style="ellipse;whiteSpace=wrap;html=1;fillColor=#e1d5e7;strokeColor=#9673a6;gradientColor=none;" vertex="1" parent="1">
          <mxGeometry x="-792" y="905" width="86" height="26" as="geometry" />
        </mxCell>
        <mxCell id="Ln-0qqn0iWtLyIjcQI3Q-168" value="Genero/Tema&amp;nbsp;" style="ellipse;whiteSpace=wrap;html=1;fillColor=#e1d5e7;strokeColor=#9673a6;gradientColor=none;" vertex="1" parent="1">
          <mxGeometry x="-996" y="932" width="91" height="26" as="geometry" />
        </mxCell>
        <mxCell id="Ln-0qqn0iWtLyIjcQI3Q-169" value="Productor&amp;nbsp;" style="ellipse;whiteSpace=wrap;html=1;fillColor=#e1d5e7;strokeColor=#9673a6;gradientColor=none;" vertex="1" parent="1">
          <mxGeometry x="-824" y="877.5" width="75" height="24" as="geometry" />
        </mxCell>
        <mxCell id="Ln-0qqn0iWtLyIjcQI3Q-170" value="Reparto" style="ellipse;whiteSpace=wrap;html=1;fillColor=#e1d5e7;strokeColor=#9673a6;gradientColor=none;" vertex="1" parent="1">
          <mxGeometry x="-784" y="934.5" width="68" height="26" as="geometry" />
        </mxCell>
        <mxCell id="Ln-0qqn0iWtLyIjcQI3Q-171" value="Director" style="ellipse;whiteSpace=wrap;html=1;fillColor=#e1d5e7;strokeColor=#9673a6;gradientColor=none;" vertex="1" parent="1">
          <mxGeometry x="-968" y="906" width="65" height="24" as="geometry" />
        </mxCell>
        <mxCell id="Ln-0qqn0iWtLyIjcQI3Q-172" value="Calificación" style="ellipse;whiteSpace=wrap;html=1;fillColor=#e1d5e7;strokeColor=#9673a6;gradientColor=none;" vertex="1" parent="1">
          <mxGeometry x="-945" y="875.5" width="73" height="26" as="geometry" />
        </mxCell>
        <mxCell id="Ln-0qqn0iWtLyIjcQI3Q-173" value="&lt;b&gt;Peliculas&lt;/b&gt;" style="rounded=0;whiteSpace=wrap;html=1;fillColor=#f5f5f5;strokeColor=#666666;fontColor=#333333;" vertex="1" parent="1">
          <mxGeometry x="-511" y="941.5" width="116" height="23" as="geometry" />
        </mxCell>
        <mxCell id="Ln-0qqn0iWtLyIjcQI3Q-174" value="&lt;b&gt;Series&lt;/b&gt;" style="rounded=0;whiteSpace=wrap;html=1;fillColor=#f5f5f5;strokeColor=#666666;fontColor=#333333;" vertex="1" parent="1">
          <mxGeometry x="-511" y="1010.5" width="116" height="23" as="geometry" />
        </mxCell>
        <mxCell id="Ln-0qqn0iWtLyIjcQI3Q-175" value="&lt;b&gt;Documentales&lt;/b&gt;" style="rounded=0;whiteSpace=wrap;html=1;fillColor=#f5f5f5;strokeColor=#666666;fontColor=#333333;" vertex="1" parent="1">
          <mxGeometry x="-511" y="1078.5" width="116" height="23" as="geometry" />
        </mxCell>
        <mxCell id="Ln-0qqn0iWtLyIjcQI3Q-176" value="Fecha pago" style="ellipse;whiteSpace=wrap;html=1;fillColor=#e1d5e7;strokeColor=#9673a6;gradientColor=none;" vertex="1" parent="1">
          <mxGeometry x="-1136" y="450" width="120" height="26" as="geometry" />
        </mxCell>
        <mxCell id="Ln-0qqn0iWtLyIjcQI3Q-177" value="&lt;u&gt;ID Suscripción&lt;/u&gt;" style="ellipse;whiteSpace=wrap;html=1;fillColor=#e1d5e7;strokeColor=#9673a6;gradientColor=none;" vertex="1" parent="1">
          <mxGeometry x="-1194" y="493" width="120" height="26" as="geometry" />
        </mxCell>
        <mxCell id="Ln-0qqn0iWtLyIjcQI3Q-178" value="Vencimiento/Plazo" style="ellipse;whiteSpace=wrap;html=1;fillColor=#e1d5e7;strokeColor=#9673a6;gradientColor=none;" vertex="1" parent="1">
          <mxGeometry x="-1045" y="413" width="120" height="26" as="geometry" />
        </mxCell>
        <mxCell id="Ln-0qqn0iWtLyIjcQI3Q-179" value="Costo mensual" style="ellipse;whiteSpace=wrap;html=1;fillColor=#e1d5e7;strokeColor=#9673a6;gradientColor=none;" vertex="1" parent="1">
          <mxGeometry x="-953" y="455" width="120" height="26" as="geometry" />
        </mxCell>
        <mxCell id="Ln-0qqn0iWtLyIjcQI3Q-180" value="Descuento" style="ellipse;whiteSpace=wrap;html=1;fillColor=#e1d5e7;strokeColor=#9673a6;gradientColor=none;" vertex="1" parent="1">
          <mxGeometry x="-908" y="503" width="120" height="26" as="geometry" />
        </mxCell>
        <mxCell id="Ln-0qqn0iWtLyIjcQI3Q-181" value="&lt;b&gt;Cuenta&lt;/b&gt;" style="rounded=0;whiteSpace=wrap;html=1;fillColor=#f5f5f5;strokeColor=#666666;fontColor=#333333;shadow=1;" vertex="1" parent="1">
          <mxGeometry x="-1472" y="562" width="120" height="31" as="geometry" />
        </mxCell>
        <mxCell id="Ln-0qqn0iWtLyIjcQI3Q-182" value="Permite" style="rhombus;whiteSpace=wrap;html=1;fillColor=#d5e8d4;strokeColor=#82b366;" vertex="1" parent="1">
          <mxGeometry x="-1455" y="829" width="80" height="63" as="geometry" />
        </mxCell>
        <mxCell id="Ln-0qqn0iWtLyIjcQI3Q-183" value="" style="endArrow=none;html=1;rounded=0;entryX=0.5;entryY=1;entryDx=0;entryDy=0;exitX=0.5;exitY=0;exitDx=0;exitDy=0;" edge="1" parent="1" source="Ln-0qqn0iWtLyIjcQI3Q-182" target="Ln-0qqn0iWtLyIjcQI3Q-181">
          <mxGeometry width="50" height="50" relative="1" as="geometry">
            <mxPoint x="-1412" y="706" as="sourcePoint" />
            <mxPoint x="-1382" y="654" as="targetPoint" />
          </mxGeometry>
        </mxCell>
        <mxCell id="Ln-0qqn0iWtLyIjcQI3Q-184" value="" style="endArrow=none;html=1;rounded=0;entryX=0.5;entryY=1;entryDx=0;entryDy=0;exitX=0.5;exitY=0;exitDx=0;exitDy=0;" edge="1" parent="1" source="Ln-0qqn0iWtLyIjcQI3Q-150">
          <mxGeometry width="50" height="50" relative="1" as="geometry">
            <mxPoint x="-1415.67" y="1005" as="sourcePoint" />
            <mxPoint x="-1415.67" y="892" as="targetPoint" />
          </mxGeometry>
        </mxCell>
        <mxCell id="Ln-0qqn0iWtLyIjcQI3Q-185" value="1" style="text;html=1;strokeColor=none;fillColor=none;align=center;verticalAlign=middle;whiteSpace=wrap;rounded=0;" vertex="1" parent="1">
          <mxGeometry x="-1415" y="594" width="24" height="19" as="geometry" />
        </mxCell>
        <mxCell id="Ln-0qqn0iWtLyIjcQI3Q-186" value="3" style="text;html=1;strokeColor=none;fillColor=none;align=center;verticalAlign=middle;whiteSpace=wrap;rounded=0;" vertex="1" parent="1">
          <mxGeometry x="-1418" y="985" width="24" height="19" as="geometry" />
        </mxCell>
        <mxCell id="Ln-0qqn0iWtLyIjcQI3Q-187" value="" style="endArrow=none;html=1;rounded=0;entryX=1;entryY=0.5;entryDx=0;entryDy=0;exitX=0;exitY=0.5;exitDx=0;exitDy=0;" edge="1" parent="1" target="Ln-0qqn0iWtLyIjcQI3Q-181" source="Ln-0qqn0iWtLyIjcQI3Q-189">
          <mxGeometry width="50" height="50" relative="1" as="geometry">
            <mxPoint x="-1251" y="701" as="sourcePoint" />
            <mxPoint x="-1405" y="726" as="targetPoint" />
          </mxGeometry>
        </mxCell>
        <mxCell id="Ln-0qqn0iWtLyIjcQI3Q-188" value="1" style="text;html=1;strokeColor=none;fillColor=none;align=center;verticalAlign=middle;whiteSpace=wrap;rounded=0;" vertex="1" parent="1">
          <mxGeometry x="-1352" y="559.5" width="24" height="19" as="geometry" />
        </mxCell>
        <mxCell id="Ln-0qqn0iWtLyIjcQI3Q-189" value="Abona" style="rhombus;whiteSpace=wrap;html=1;fillColor=#d5e8d4;strokeColor=#82b366;" vertex="1" parent="1">
          <mxGeometry x="-1236" y="546" width="80" height="63" as="geometry" />
        </mxCell>
        <mxCell id="Ln-0qqn0iWtLyIjcQI3Q-190" value="" style="endArrow=none;html=1;rounded=0;entryX=1;entryY=0.5;entryDx=0;entryDy=0;exitX=0;exitY=1;exitDx=0;exitDy=0;" edge="1" parent="1">
          <mxGeometry width="50" height="50" relative="1" as="geometry">
            <mxPoint x="-1052" y="577.17" as="sourcePoint" />
            <mxPoint x="-1156" y="577.17" as="targetPoint" />
          </mxGeometry>
        </mxCell>
        <mxCell id="Ln-0qqn0iWtLyIjcQI3Q-191" value="Reproducir" style="rhombus;whiteSpace=wrap;html=1;fillColor=#d5e8d4;strokeColor=#82b366;" vertex="1" parent="1">
          <mxGeometry x="-882" y="1123" width="80" height="63" as="geometry" />
        </mxCell>
        <mxCell id="Ln-0qqn0iWtLyIjcQI3Q-192" value="N" style="text;html=1;strokeColor=none;fillColor=none;align=center;verticalAlign=middle;whiteSpace=wrap;rounded=0;" vertex="1" parent="1">
          <mxGeometry x="-1082" y="559" width="32" height="19" as="geometry" />
        </mxCell>
        <mxCell id="Ln-0qqn0iWtLyIjcQI3Q-193" value="Descargar" style="rhombus;whiteSpace=wrap;html=1;fillColor=#d5e8d4;strokeColor=#82b366;" vertex="1" parent="1">
          <mxGeometry x="-1190" y="1085" width="80" height="63" as="geometry" />
        </mxCell>
        <mxCell id="Ln-0qqn0iWtLyIjcQI3Q-194" value="Asocia" style="rhombus;whiteSpace=wrap;html=1;fillColor=#d5e8d4;strokeColor=#82b366;" vertex="1" parent="1">
          <mxGeometry x="-1455" y="1131" width="80" height="63" as="geometry" />
        </mxCell>
        <mxCell id="Ln-0qqn0iWtLyIjcQI3Q-195" value="" style="endArrow=none;html=1;rounded=0;exitX=0.5;exitY=0;exitDx=0;exitDy=0;entryX=0.5;entryY=1;entryDx=0;entryDy=0;" edge="1" parent="1" source="Ln-0qqn0iWtLyIjcQI3Q-194" target="Ln-0qqn0iWtLyIjcQI3Q-150">
          <mxGeometry width="50" height="50" relative="1" as="geometry">
            <mxPoint x="-1412" y="1104" as="sourcePoint" />
            <mxPoint x="-1413" y="1027" as="targetPoint" />
          </mxGeometry>
        </mxCell>
        <mxCell id="Ln-0qqn0iWtLyIjcQI3Q-196" value="" style="endArrow=none;html=1;rounded=0;exitX=0.5;exitY=1;exitDx=0;exitDy=0;" edge="1" parent="1" source="Ln-0qqn0iWtLyIjcQI3Q-194">
          <mxGeometry width="50" height="50" relative="1" as="geometry">
            <mxPoint x="-1416" y="1239" as="sourcePoint" />
            <mxPoint x="-1290" y="1271" as="targetPoint" />
            <Array as="points">
              <mxPoint x="-1416" y="1271" />
            </Array>
          </mxGeometry>
        </mxCell>
        <mxCell id="Ln-0qqn0iWtLyIjcQI3Q-197" value="" style="endArrow=none;html=1;rounded=0;exitX=0.5;exitY=0;exitDx=0;exitDy=0;entryX=0.5;entryY=1;entryDx=0;entryDy=0;" edge="1" parent="1" source="Ln-0qqn0iWtLyIjcQI3Q-191" target="Ln-0qqn0iWtLyIjcQI3Q-151">
          <mxGeometry width="50" height="50" relative="1" as="geometry">
            <mxPoint x="-892" y="1110.5" as="sourcePoint" />
            <mxPoint x="-891.6700000000001" y="1043.5" as="targetPoint" />
          </mxGeometry>
        </mxCell>
        <mxCell id="Ln-0qqn0iWtLyIjcQI3Q-198" value="" style="endArrow=none;html=1;rounded=0;exitX=1;exitY=0.5;exitDx=0;exitDy=0;" edge="1" parent="1" source="Ln-0qqn0iWtLyIjcQI3Q-152" target="Ln-0qqn0iWtLyIjcQI3Q-191">
          <mxGeometry width="50" height="50" relative="1" as="geometry">
            <mxPoint x="-1061.67" y="1307" as="sourcePoint" />
            <mxPoint x="-996" y="1239" as="targetPoint" />
            <Array as="points">
              <mxPoint x="-842" y="1275" />
            </Array>
          </mxGeometry>
        </mxCell>
        <mxCell id="Ln-0qqn0iWtLyIjcQI3Q-199" value="" style="endArrow=none;html=1;rounded=0;entryX=0;entryY=0.5;entryDx=0;entryDy=0;exitX=0.25;exitY=0;exitDx=0;exitDy=0;" edge="1" parent="1" target="Ln-0qqn0iWtLyIjcQI3Q-193" source="Ln-0qqn0iWtLyIjcQI3Q-227">
          <mxGeometry width="50" height="50" relative="1" as="geometry">
            <mxPoint x="-1385" y="1116" as="sourcePoint" />
            <mxPoint x="-1276.67" y="1030" as="targetPoint" />
            <Array as="points">
              <mxPoint x="-1380" y="1117" />
            </Array>
          </mxGeometry>
        </mxCell>
        <mxCell id="Ln-0qqn0iWtLyIjcQI3Q-200" value="Lista favoritos" style="ellipse;whiteSpace=wrap;html=1;fillColor=#e1d5e7;strokeColor=#9673a6;gradientColor=none;" vertex="1" parent="1">
          <mxGeometry x="-1650" y="1041.5" width="120" height="26" as="geometry" />
        </mxCell>
        <mxCell id="Ln-0qqn0iWtLyIjcQI3Q-201" value="1" style="text;html=1;strokeColor=none;fillColor=none;align=center;verticalAlign=middle;whiteSpace=wrap;rounded=0;" vertex="1" parent="1">
          <mxGeometry x="-1418" y="1033" width="24" height="19" as="geometry" />
        </mxCell>
        <mxCell id="Ln-0qqn0iWtLyIjcQI3Q-202" value="5" style="text;html=1;strokeColor=none;fillColor=none;align=center;verticalAlign=middle;whiteSpace=wrap;rounded=0;" vertex="1" parent="1">
          <mxGeometry x="-1311" y="1253" width="24" height="19" as="geometry" />
        </mxCell>
        <mxCell id="Ln-0qqn0iWtLyIjcQI3Q-203" value="" style="curved=1;endArrow=classic;html=1;rounded=0;" edge="1" parent="1">
          <mxGeometry width="50" height="50" relative="1" as="geometry">
            <mxPoint x="-1430" y="995" as="sourcePoint" />
            <mxPoint x="-1457" y="999" as="targetPoint" />
            <Array as="points">
              <mxPoint x="-1442" y="967" />
              <mxPoint x="-1465" y="977" />
            </Array>
          </mxGeometry>
        </mxCell>
        <mxCell id="Ln-0qqn0iWtLyIjcQI3Q-204" value="Watch party" style="text;html=1;strokeColor=none;fillColor=none;align=center;verticalAlign=middle;whiteSpace=wrap;rounded=0;" vertex="1" parent="1">
          <mxGeometry x="-1483" y="932" width="60" height="30" as="geometry" />
        </mxCell>
        <mxCell id="Ln-0qqn0iWtLyIjcQI3Q-205" value="Lista Favoritos" style="rhombus;whiteSpace=wrap;html=1;fillColor=#d5e8d4;strokeColor=#82b366;" vertex="1" parent="1">
          <mxGeometry x="-1201" y="983" width="98" height="77" as="geometry" />
        </mxCell>
        <mxCell id="Ln-0qqn0iWtLyIjcQI3Q-207" value="" style="endArrow=none;html=1;rounded=0;exitX=0.5;exitY=1;exitDx=0;exitDy=0;entryX=0.5;entryY=0;entryDx=0;entryDy=0;" edge="1" parent="1" source="Ln-0qqn0iWtLyIjcQI3Q-193" target="Ln-0qqn0iWtLyIjcQI3Q-166">
          <mxGeometry width="50" height="50" relative="1" as="geometry">
            <mxPoint x="-1183" y="1070.5" as="sourcePoint" />
            <mxPoint x="-1109" y="1151.5" as="targetPoint" />
          </mxGeometry>
        </mxCell>
        <mxCell id="Ln-0qqn0iWtLyIjcQI3Q-208" value="Historial Reproducción" style="rhombus;whiteSpace=wrap;html=1;fillColor=#d5e8d4;strokeColor=#82b366;" vertex="1" parent="1">
          <mxGeometry x="-1201" y="883.5" width="98" height="77" as="geometry" />
        </mxCell>
        <mxCell id="Ln-0qqn0iWtLyIjcQI3Q-209" value="" style="endArrow=none;html=1;rounded=0;exitX=1;exitY=0.5;exitDx=0;exitDy=0;entryX=0.25;entryY=0;entryDx=0;entryDy=0;" edge="1" parent="1" source="Ln-0qqn0iWtLyIjcQI3Q-208" target="Ln-0qqn0iWtLyIjcQI3Q-151">
          <mxGeometry width="50" height="50" relative="1" as="geometry">
            <mxPoint x="-1036" y="961" as="sourcePoint" />
            <mxPoint x="-978" y="869" as="targetPoint" />
            <Array as="points" />
          </mxGeometry>
        </mxCell>
        <mxCell id="Ln-0qqn0iWtLyIjcQI3Q-210" value="" style="endArrow=none;html=1;rounded=0;exitX=0.75;exitY=0;exitDx=0;exitDy=0;entryX=0;entryY=0.5;entryDx=0;entryDy=0;" edge="1" parent="1" source="Ln-0qqn0iWtLyIjcQI3Q-150" target="Ln-0qqn0iWtLyIjcQI3Q-208">
          <mxGeometry width="50" height="50" relative="1" as="geometry">
            <mxPoint x="-1381" y="945" as="sourcePoint" />
            <mxPoint x="-1331" y="895" as="targetPoint" />
            <Array as="points">
              <mxPoint x="-1385" y="922" />
            </Array>
          </mxGeometry>
        </mxCell>
        <mxCell id="Ln-0qqn0iWtLyIjcQI3Q-211" value="Cont_Peli" style="rhombus;whiteSpace=wrap;html=1;fillColor=#d5e8d4;strokeColor=#82b366;" vertex="1" parent="1">
          <mxGeometry x="-602" y="921.5" width="68" height="63" as="geometry" />
        </mxCell>
        <mxCell id="Ln-0qqn0iWtLyIjcQI3Q-212" value="Cont_Serie" style="rhombus;whiteSpace=wrap;html=1;fillColor=#d5e8d4;strokeColor=#82b366;" vertex="1" parent="1">
          <mxGeometry x="-603" y="990" width="68" height="63" as="geometry" />
        </mxCell>
        <mxCell id="Ln-0qqn0iWtLyIjcQI3Q-213" value="Cont_Docu" style="rhombus;whiteSpace=wrap;html=1;fillColor=#d5e8d4;strokeColor=#82b366;" vertex="1" parent="1">
          <mxGeometry x="-603" y="1057.5" width="68" height="63" as="geometry" />
        </mxCell>
        <mxCell id="Ln-0qqn0iWtLyIjcQI3Q-214" value="" style="endArrow=none;html=1;rounded=0;exitX=1;exitY=0.5;exitDx=0;exitDy=0;entryX=0;entryY=0.5;entryDx=0;entryDy=0;" edge="1" parent="1" source="Ln-0qqn0iWtLyIjcQI3Q-151" target="Ln-0qqn0iWtLyIjcQI3Q-211">
          <mxGeometry width="50" height="50" relative="1" as="geometry">
            <mxPoint x="-875" y="1078" as="sourcePoint" />
            <mxPoint x="-825" y="1028" as="targetPoint" />
          </mxGeometry>
        </mxCell>
        <mxCell id="Ln-0qqn0iWtLyIjcQI3Q-215" value="" style="endArrow=none;html=1;rounded=0;exitX=1;exitY=0.5;exitDx=0;exitDy=0;entryX=0;entryY=0.5;entryDx=0;entryDy=0;" edge="1" parent="1" source="Ln-0qqn0iWtLyIjcQI3Q-151" target="Ln-0qqn0iWtLyIjcQI3Q-212">
          <mxGeometry width="50" height="50" relative="1" as="geometry">
            <mxPoint x="-875" y="1078" as="sourcePoint" />
            <mxPoint x="-825" y="1028" as="targetPoint" />
          </mxGeometry>
        </mxCell>
        <mxCell id="Ln-0qqn0iWtLyIjcQI3Q-216" value="" style="endArrow=none;html=1;rounded=0;exitX=1;exitY=0.5;exitDx=0;exitDy=0;entryX=0;entryY=0.5;entryDx=0;entryDy=0;" edge="1" parent="1" source="Ln-0qqn0iWtLyIjcQI3Q-151" target="Ln-0qqn0iWtLyIjcQI3Q-213">
          <mxGeometry width="50" height="50" relative="1" as="geometry">
            <mxPoint x="-875" y="1078" as="sourcePoint" />
            <mxPoint x="-825" y="1028" as="targetPoint" />
          </mxGeometry>
        </mxCell>
        <mxCell id="Ln-0qqn0iWtLyIjcQI3Q-217" value="" style="endArrow=none;html=1;rounded=0;exitX=1;exitY=0.5;exitDx=0;exitDy=0;entryX=0;entryY=0.5;entryDx=0;entryDy=0;" edge="1" parent="1" source="Ln-0qqn0iWtLyIjcQI3Q-213" target="Ln-0qqn0iWtLyIjcQI3Q-175">
          <mxGeometry width="50" height="50" relative="1" as="geometry">
            <mxPoint x="-520" y="1059.5" as="sourcePoint" />
            <mxPoint x="-470" y="1009.5" as="targetPoint" />
          </mxGeometry>
        </mxCell>
        <mxCell id="Ln-0qqn0iWtLyIjcQI3Q-218" value="" style="endArrow=none;html=1;rounded=0;exitX=1;exitY=0.5;exitDx=0;exitDy=0;entryX=0;entryY=0.5;entryDx=0;entryDy=0;" edge="1" parent="1" source="Ln-0qqn0iWtLyIjcQI3Q-212" target="Ln-0qqn0iWtLyIjcQI3Q-174">
          <mxGeometry width="50" height="50" relative="1" as="geometry">
            <mxPoint x="-520" y="1059.5" as="sourcePoint" />
            <mxPoint x="-470" y="1009.5" as="targetPoint" />
          </mxGeometry>
        </mxCell>
        <mxCell id="Ln-0qqn0iWtLyIjcQI3Q-219" value="" style="endArrow=none;html=1;rounded=0;exitX=1;exitY=0.5;exitDx=0;exitDy=0;entryX=0;entryY=0.5;entryDx=0;entryDy=0;" edge="1" parent="1" source="Ln-0qqn0iWtLyIjcQI3Q-211" target="Ln-0qqn0iWtLyIjcQI3Q-173">
          <mxGeometry width="50" height="50" relative="1" as="geometry">
            <mxPoint x="-520" y="1059.5" as="sourcePoint" />
            <mxPoint x="-470" y="1009.5" as="targetPoint" />
          </mxGeometry>
        </mxCell>
        <mxCell id="Ln-0qqn0iWtLyIjcQI3Q-220" value="Casting" style="ellipse;whiteSpace=wrap;html=1;fillColor=#e1d5e7;strokeColor=#9673a6;gradientColor=none;" vertex="1" parent="1">
          <mxGeometry x="-1170" y="1335" width="120" height="26" as="geometry" />
        </mxCell>
        <mxCell id="Ln-0qqn0iWtLyIjcQI3Q-221" value="1" style="text;html=1;strokeColor=none;fillColor=none;align=center;verticalAlign=middle;whiteSpace=wrap;rounded=0;" vertex="1" parent="1">
          <mxGeometry x="-1400" y="985" width="24" height="19" as="geometry" />
        </mxCell>
        <mxCell id="Ln-0qqn0iWtLyIjcQI3Q-222" value="10" style="text;html=1;strokeColor=none;fillColor=none;align=center;verticalAlign=middle;whiteSpace=wrap;rounded=0;" vertex="1" parent="1">
          <mxGeometry x="-882" y="987.5" width="24" height="19" as="geometry" />
        </mxCell>
        <mxCell id="Ln-0qqn0iWtLyIjcQI3Q-223" value="1" style="text;html=1;strokeColor=none;fillColor=none;align=center;verticalAlign=middle;whiteSpace=wrap;rounded=0;" vertex="1" parent="1">
          <mxGeometry x="-1359" y="999" width="24" height="19" as="geometry" />
        </mxCell>
        <mxCell id="Ln-0qqn0iWtLyIjcQI3Q-224" value="N" style="text;html=1;strokeColor=none;fillColor=none;align=center;verticalAlign=middle;whiteSpace=wrap;rounded=0;" vertex="1" parent="1">
          <mxGeometry x="-922" y="1015.5" width="24" height="19" as="geometry" />
        </mxCell>
        <mxCell id="Ln-0qqn0iWtLyIjcQI3Q-225" value="" style="endArrow=none;html=1;rounded=0;exitX=1;exitY=0.5;exitDx=0;exitDy=0;entryX=0;entryY=0.5;entryDx=0;entryDy=0;" edge="1" parent="1" source="Ln-0qqn0iWtLyIjcQI3Q-205" target="Ln-0qqn0iWtLyIjcQI3Q-151">
          <mxGeometry width="50" height="50" relative="1" as="geometry">
            <mxPoint x="-1083" y="1061" as="sourcePoint" />
            <mxPoint x="-1033" y="1011" as="targetPoint" />
          </mxGeometry>
        </mxCell>
        <mxCell id="Ln-0qqn0iWtLyIjcQI3Q-226" value="" style="endArrow=none;html=1;rounded=0;exitX=0;exitY=0.5;exitDx=0;exitDy=0;entryX=0.25;entryY=1;entryDx=0;entryDy=0;" edge="1" parent="1" source="Ln-0qqn0iWtLyIjcQI3Q-205" target="Ln-0qqn0iWtLyIjcQI3Q-223">
          <mxGeometry width="50" height="50" relative="1" as="geometry">
            <mxPoint x="-1083" y="1061" as="sourcePoint" />
            <mxPoint x="-1261" y="1021" as="targetPoint" />
          </mxGeometry>
        </mxCell>
        <mxCell id="Ln-0qqn0iWtLyIjcQI3Q-227" value="1" style="text;html=1;strokeColor=none;fillColor=none;align=center;verticalAlign=middle;whiteSpace=wrap;rounded=0;" vertex="1" parent="1">
          <mxGeometry x="-1386" y="1032" width="24" height="19" as="geometry" />
        </mxCell>
        <mxCell id="Ln-0qqn0iWtLyIjcQI3Q-228" value="N" style="text;html=1;strokeColor=none;fillColor=none;align=center;verticalAlign=middle;whiteSpace=wrap;rounded=0;" vertex="1" parent="1">
          <mxGeometry x="-884" y="1031.5" width="24" height="19" as="geometry" />
        </mxCell>
        <mxCell id="Ln-0qqn0iWtLyIjcQI3Q-229" value="1" style="text;html=1;strokeColor=none;fillColor=none;align=center;verticalAlign=middle;whiteSpace=wrap;rounded=0;" vertex="1" parent="1">
          <mxGeometry x="-1170" y="1252" width="24" height="19" as="geometry" />
        </mxCell>
        <mxCell id="Ln-0qqn0iWtLyIjcQI3Q-230" value="N" style="text;html=1;strokeColor=none;fillColor=none;align=center;verticalAlign=middle;whiteSpace=wrap;rounded=0;" vertex="1" parent="1">
          <mxGeometry x="-848" y="1032" width="24" height="19" as="geometry" />
        </mxCell>
        <mxCell id="Ln-0qqn0iWtLyIjcQI3Q-231" value="" style="endArrow=none;html=1;rounded=0;exitX=1;exitY=0.5;exitDx=0;exitDy=0;entryX=0.25;entryY=1;entryDx=0;entryDy=0;" edge="1" parent="1" source="Ln-0qqn0iWtLyIjcQI3Q-193" target="Ln-0qqn0iWtLyIjcQI3Q-151">
          <mxGeometry width="50" height="50" relative="1" as="geometry">
            <mxPoint x="-936" y="961" as="sourcePoint" />
            <mxPoint x="-886" y="911" as="targetPoint" />
            <Array as="points" />
          </mxGeometry>
        </mxCell>
        <mxCell id="Ln-0qqn0iWtLyIjcQI3Q-232" value="" style="endArrow=none;html=1;rounded=0;exitX=0.5;exitY=1;exitDx=0;exitDy=0;entryX=0.5;entryY=0;entryDx=0;entryDy=0;" edge="1" parent="1" source="Ln-0qqn0iWtLyIjcQI3Q-170" target="Ln-0qqn0iWtLyIjcQI3Q-151">
          <mxGeometry width="50" height="50" relative="1" as="geometry">
            <mxPoint x="-873" y="958.5" as="sourcePoint" />
            <mxPoint x="-823" y="908.5" as="targetPoint" />
          </mxGeometry>
        </mxCell>
        <mxCell id="Ln-0qqn0iWtLyIjcQI3Q-233" value="" style="endArrow=none;html=1;rounded=0;entryX=0.5;entryY=1;entryDx=0;entryDy=0;exitX=0.5;exitY=0;exitDx=0;exitDy=0;" edge="1" parent="1" source="Ln-0qqn0iWtLyIjcQI3Q-151" target="Ln-0qqn0iWtLyIjcQI3Q-172">
          <mxGeometry width="50" height="50" relative="1" as="geometry">
            <mxPoint x="-873" y="958.5" as="sourcePoint" />
            <mxPoint x="-823" y="908.5" as="targetPoint" />
          </mxGeometry>
        </mxCell>
        <mxCell id="Ln-0qqn0iWtLyIjcQI3Q-234" value="" style="endArrow=none;html=1;rounded=0;exitX=1;exitY=1;exitDx=0;exitDy=0;entryX=0.5;entryY=0;entryDx=0;entryDy=0;" edge="1" parent="1" source="Ln-0qqn0iWtLyIjcQI3Q-168" target="Ln-0qqn0iWtLyIjcQI3Q-151">
          <mxGeometry width="50" height="50" relative="1" as="geometry">
            <mxPoint x="-873" y="958.5" as="sourcePoint" />
            <mxPoint x="-823" y="908.5" as="targetPoint" />
          </mxGeometry>
        </mxCell>
        <mxCell id="Ln-0qqn0iWtLyIjcQI3Q-235" value="" style="endArrow=none;html=1;rounded=0;exitX=1;exitY=0.5;exitDx=0;exitDy=0;entryX=0;entryY=0.5;entryDx=0;entryDy=0;" edge="1" parent="1" source="Ln-0qqn0iWtLyIjcQI3Q-160" target="Ln-0qqn0iWtLyIjcQI3Q-181">
          <mxGeometry width="50" height="50" relative="1" as="geometry">
            <mxPoint x="-1384" y="567" as="sourcePoint" />
            <mxPoint x="-1334" y="517" as="targetPoint" />
          </mxGeometry>
        </mxCell>
        <mxCell id="Ln-0qqn0iWtLyIjcQI3Q-236" value="" style="endArrow=none;html=1;rounded=0;exitX=1;exitY=0.5;exitDx=0;exitDy=0;entryX=0;entryY=0.5;entryDx=0;entryDy=0;" edge="1" parent="1" source="Ln-0qqn0iWtLyIjcQI3Q-153" target="Ln-0qqn0iWtLyIjcQI3Q-181">
          <mxGeometry width="50" height="50" relative="1" as="geometry">
            <mxPoint x="-1384" y="567" as="sourcePoint" />
            <mxPoint x="-1334" y="517" as="targetPoint" />
          </mxGeometry>
        </mxCell>
        <mxCell id="Ln-0qqn0iWtLyIjcQI3Q-237" value="" style="endArrow=none;html=1;rounded=0;exitX=1;exitY=0.5;exitDx=0;exitDy=0;entryX=0;entryY=0.5;entryDx=0;entryDy=0;" edge="1" parent="1" source="Ln-0qqn0iWtLyIjcQI3Q-154" target="Ln-0qqn0iWtLyIjcQI3Q-181">
          <mxGeometry width="50" height="50" relative="1" as="geometry">
            <mxPoint x="-1384" y="567" as="sourcePoint" />
            <mxPoint x="-1334" y="517" as="targetPoint" />
          </mxGeometry>
        </mxCell>
        <mxCell id="Ln-0qqn0iWtLyIjcQI3Q-238" value="" style="endArrow=none;html=1;rounded=0;exitX=1;exitY=0.5;exitDx=0;exitDy=0;entryX=0;entryY=0.5;entryDx=0;entryDy=0;" edge="1" parent="1" source="Ln-0qqn0iWtLyIjcQI3Q-155" target="Ln-0qqn0iWtLyIjcQI3Q-181">
          <mxGeometry width="50" height="50" relative="1" as="geometry">
            <mxPoint x="-1384" y="567" as="sourcePoint" />
            <mxPoint x="-1334" y="517" as="targetPoint" />
          </mxGeometry>
        </mxCell>
        <mxCell id="Ln-0qqn0iWtLyIjcQI3Q-239" value="" style="endArrow=none;html=1;rounded=0;exitX=1;exitY=0.5;exitDx=0;exitDy=0;entryX=0;entryY=0.5;entryDx=0;entryDy=0;" edge="1" parent="1" source="Ln-0qqn0iWtLyIjcQI3Q-156" target="Ln-0qqn0iWtLyIjcQI3Q-181">
          <mxGeometry width="50" height="50" relative="1" as="geometry">
            <mxPoint x="-1384" y="567" as="sourcePoint" />
            <mxPoint x="-1334" y="517" as="targetPoint" />
          </mxGeometry>
        </mxCell>
        <mxCell id="Ln-0qqn0iWtLyIjcQI3Q-240" value="" style="endArrow=none;html=1;rounded=0;exitX=1;exitY=0.5;exitDx=0;exitDy=0;entryX=0;entryY=0.5;entryDx=0;entryDy=0;" edge="1" parent="1" source="Ln-0qqn0iWtLyIjcQI3Q-157" target="Ln-0qqn0iWtLyIjcQI3Q-181">
          <mxGeometry width="50" height="50" relative="1" as="geometry">
            <mxPoint x="-1384" y="567" as="sourcePoint" />
            <mxPoint x="-1334" y="517" as="targetPoint" />
          </mxGeometry>
        </mxCell>
        <mxCell id="Ln-0qqn0iWtLyIjcQI3Q-241" value="" style="endArrow=none;html=1;rounded=0;exitX=1;exitY=0.5;exitDx=0;exitDy=0;entryX=0;entryY=0.5;entryDx=0;entryDy=0;" edge="1" parent="1" source="Ln-0qqn0iWtLyIjcQI3Q-159" target="Ln-0qqn0iWtLyIjcQI3Q-181">
          <mxGeometry width="50" height="50" relative="1" as="geometry">
            <mxPoint x="-1384" y="567" as="sourcePoint" />
            <mxPoint x="-1334" y="517" as="targetPoint" />
          </mxGeometry>
        </mxCell>
        <mxCell id="Ln-0qqn0iWtLyIjcQI3Q-242" value="" style="endArrow=none;html=1;rounded=0;exitX=0.5;exitY=1;exitDx=0;exitDy=0;entryX=1;entryY=0.5;entryDx=0;entryDy=0;" edge="1" parent="1" source="Ln-0qqn0iWtLyIjcQI3Q-152" target="Ln-0qqn0iWtLyIjcQI3Q-163">
          <mxGeometry width="50" height="50" relative="1" as="geometry">
            <mxPoint x="-1108" y="1335" as="sourcePoint" />
            <mxPoint x="-1058" y="1285" as="targetPoint" />
          </mxGeometry>
        </mxCell>
        <mxCell id="Ln-0qqn0iWtLyIjcQI3Q-243" value="" style="endArrow=none;html=1;rounded=0;exitX=1;exitY=0;exitDx=0;exitDy=0;entryX=0.5;entryY=1;entryDx=0;entryDy=0;" edge="1" parent="1" source="Ln-0qqn0iWtLyIjcQI3Q-164" target="Ln-0qqn0iWtLyIjcQI3Q-152">
          <mxGeometry width="50" height="50" relative="1" as="geometry">
            <mxPoint x="-1108" y="1335" as="sourcePoint" />
            <mxPoint x="-1058" y="1285" as="targetPoint" />
          </mxGeometry>
        </mxCell>
        <mxCell id="Ln-0qqn0iWtLyIjcQI3Q-244" value="" style="endArrow=none;html=1;rounded=0;entryX=0.5;entryY=1;entryDx=0;entryDy=0;exitX=0.5;exitY=0;exitDx=0;exitDy=0;" edge="1" parent="1" source="Ln-0qqn0iWtLyIjcQI3Q-165" target="Ln-0qqn0iWtLyIjcQI3Q-152">
          <mxGeometry width="50" height="50" relative="1" as="geometry">
            <mxPoint x="-1108" y="1335" as="sourcePoint" />
            <mxPoint x="-1058" y="1285" as="targetPoint" />
          </mxGeometry>
        </mxCell>
        <mxCell id="Ln-0qqn0iWtLyIjcQI3Q-245" value="" style="endArrow=none;html=1;rounded=0;exitX=0.5;exitY=1;exitDx=0;exitDy=0;entryX=0;entryY=0.5;entryDx=0;entryDy=0;" edge="1" parent="1" source="Ln-0qqn0iWtLyIjcQI3Q-152" target="Ln-0qqn0iWtLyIjcQI3Q-220">
          <mxGeometry width="50" height="50" relative="1" as="geometry">
            <mxPoint x="-1108" y="1335" as="sourcePoint" />
            <mxPoint x="-1058" y="1285" as="targetPoint" />
          </mxGeometry>
        </mxCell>
        <mxCell id="Ln-0qqn0iWtLyIjcQI3Q-246" value="" style="endArrow=none;html=1;rounded=0;entryX=1;entryY=0.5;entryDx=0;entryDy=0;exitX=0;exitY=0.5;exitDx=0;exitDy=0;" edge="1" parent="1" source="Ln-0qqn0iWtLyIjcQI3Q-150" target="Ln-0qqn0iWtLyIjcQI3Q-158">
          <mxGeometry width="50" height="50" relative="1" as="geometry">
            <mxPoint x="-1513" y="1069" as="sourcePoint" />
            <mxPoint x="-1463" y="1019" as="targetPoint" />
          </mxGeometry>
        </mxCell>
        <mxCell id="Ln-0qqn0iWtLyIjcQI3Q-247" value="" style="endArrow=none;html=1;rounded=0;exitX=1;exitY=0.5;exitDx=0;exitDy=0;entryX=0;entryY=0.5;entryDx=0;entryDy=0;" edge="1" parent="1" source="Ln-0qqn0iWtLyIjcQI3Q-161" target="Ln-0qqn0iWtLyIjcQI3Q-150">
          <mxGeometry width="50" height="50" relative="1" as="geometry">
            <mxPoint x="-1513" y="1069" as="sourcePoint" />
            <mxPoint x="-1492" y="1026" as="targetPoint" />
          </mxGeometry>
        </mxCell>
        <mxCell id="Ln-0qqn0iWtLyIjcQI3Q-248" value="" style="endArrow=none;html=1;rounded=0;exitX=1;exitY=0.5;exitDx=0;exitDy=0;entryX=0;entryY=0.5;entryDx=0;entryDy=0;" edge="1" parent="1" source="Ln-0qqn0iWtLyIjcQI3Q-200" target="Ln-0qqn0iWtLyIjcQI3Q-150">
          <mxGeometry width="50" height="50" relative="1" as="geometry">
            <mxPoint x="-1513" y="1069" as="sourcePoint" />
            <mxPoint x="-1513" y="1019" as="targetPoint" />
          </mxGeometry>
        </mxCell>
        <mxCell id="Ln-0qqn0iWtLyIjcQI3Q-249" value="" style="endArrow=none;html=1;rounded=0;exitX=1;exitY=0.5;exitDx=0;exitDy=0;entryX=0;entryY=0.5;entryDx=0;entryDy=0;" edge="1" parent="1" source="Ln-0qqn0iWtLyIjcQI3Q-162" target="Ln-0qqn0iWtLyIjcQI3Q-150">
          <mxGeometry width="50" height="50" relative="1" as="geometry">
            <mxPoint x="-1513" y="1069" as="sourcePoint" />
            <mxPoint x="-1467" y="1055" as="targetPoint" />
          </mxGeometry>
        </mxCell>
        <mxCell id="Ln-0qqn0iWtLyIjcQI3Q-250" value="" style="endArrow=none;html=1;rounded=0;entryX=1;entryY=1;entryDx=0;entryDy=0;exitX=0.5;exitY=0;exitDx=0;exitDy=0;" edge="1" parent="1" source="Ln-0qqn0iWtLyIjcQI3Q-151" target="Ln-0qqn0iWtLyIjcQI3Q-171">
          <mxGeometry width="50" height="50" relative="1" as="geometry">
            <mxPoint x="-1060" y="970.5" as="sourcePoint" />
            <mxPoint x="-1010" y="920.5" as="targetPoint" />
          </mxGeometry>
        </mxCell>
        <mxCell id="Ln-0qqn0iWtLyIjcQI3Q-251" value="" style="endArrow=none;html=1;rounded=0;entryX=0.5;entryY=1;entryDx=0;entryDy=0;exitX=0.5;exitY=0;exitDx=0;exitDy=0;" edge="1" parent="1" source="Ln-0qqn0iWtLyIjcQI3Q-151" target="Ln-0qqn0iWtLyIjcQI3Q-169">
          <mxGeometry width="50" height="50" relative="1" as="geometry">
            <mxPoint x="-1060" y="970.5" as="sourcePoint" />
            <mxPoint x="-1010" y="920.5" as="targetPoint" />
          </mxGeometry>
        </mxCell>
        <mxCell id="Ln-0qqn0iWtLyIjcQI3Q-252" value="" style="endArrow=none;html=1;rounded=0;entryX=0;entryY=1;entryDx=0;entryDy=0;exitX=0.5;exitY=0;exitDx=0;exitDy=0;" edge="1" parent="1" source="Ln-0qqn0iWtLyIjcQI3Q-151" target="Ln-0qqn0iWtLyIjcQI3Q-167">
          <mxGeometry width="50" height="50" relative="1" as="geometry">
            <mxPoint x="-1060" y="970.5" as="sourcePoint" />
            <mxPoint x="-1010" y="920.5" as="targetPoint" />
          </mxGeometry>
        </mxCell>
        <mxCell id="Ln-0qqn0iWtLyIjcQI3Q-253" value="Duracion" style="ellipse;whiteSpace=wrap;html=1;fillColor=#e1d5e7;strokeColor=#9673a6;gradientColor=none;" vertex="1" parent="1">
          <mxGeometry x="-875.75" y="851.5" width="59.5" height="26" as="geometry" />
        </mxCell>
        <mxCell id="Ln-0qqn0iWtLyIjcQI3Q-254" value="" style="endArrow=none;html=1;rounded=0;entryX=0.5;entryY=1;entryDx=0;entryDy=0;exitX=0.5;exitY=0;exitDx=0;exitDy=0;" edge="1" parent="1" source="Ln-0qqn0iWtLyIjcQI3Q-151" target="Ln-0qqn0iWtLyIjcQI3Q-253">
          <mxGeometry width="50" height="50" relative="1" as="geometry">
            <mxPoint x="-853" y="970.5" as="sourcePoint" />
            <mxPoint x="-803" y="920.5" as="targetPoint" />
          </mxGeometry>
        </mxCell>
        <mxCell id="Ln-0qqn0iWtLyIjcQI3Q-255" value="Tiempo visto" style="ellipse;whiteSpace=wrap;html=1;fillColor=#e1d5e7;strokeColor=#9673a6;gradientColor=none;" vertex="1" parent="1">
          <mxGeometry x="-1244" y="841.5" width="80" height="26" as="geometry" />
        </mxCell>
        <mxCell id="Ln-0qqn0iWtLyIjcQI3Q-256" value="Valoración" style="ellipse;whiteSpace=wrap;html=1;fillColor=#e1d5e7;strokeColor=#9673a6;gradientColor=none;" vertex="1" parent="1">
          <mxGeometry x="-1142" y="841.5" width="87" height="26" as="geometry" />
        </mxCell>
        <mxCell id="Ln-0qqn0iWtLyIjcQI3Q-257" value="" style="endArrow=none;html=1;rounded=0;exitX=1;exitY=1;exitDx=0;exitDy=0;entryX=0.5;entryY=0;entryDx=0;entryDy=0;" edge="1" parent="1" source="Ln-0qqn0iWtLyIjcQI3Q-255" target="Ln-0qqn0iWtLyIjcQI3Q-208">
          <mxGeometry width="50" height="50" relative="1" as="geometry">
            <mxPoint x="-1170" y="956.5" as="sourcePoint" />
            <mxPoint x="-1208" y="884.5" as="targetPoint" />
          </mxGeometry>
        </mxCell>
        <mxCell id="Ln-0qqn0iWtLyIjcQI3Q-258" value="" style="endArrow=none;html=1;rounded=0;entryX=0;entryY=1;entryDx=0;entryDy=0;exitX=0.5;exitY=0;exitDx=0;exitDy=0;" edge="1" parent="1" source="Ln-0qqn0iWtLyIjcQI3Q-208" target="Ln-0qqn0iWtLyIjcQI3Q-256">
          <mxGeometry width="50" height="50" relative="1" as="geometry">
            <mxPoint x="-1170" y="956.5" as="sourcePoint" />
            <mxPoint x="-1120" y="906.5" as="targetPoint" />
          </mxGeometry>
        </mxCell>
        <mxCell id="Ln-0qqn0iWtLyIjcQI3Q-259" value="" style="endArrow=none;html=1;rounded=0;entryX=1;entryY=1;entryDx=0;entryDy=0;exitX=0.5;exitY=0;exitDx=0;exitDy=0;" edge="1" parent="1" source="Ln-0qqn0iWtLyIjcQI3Q-149" target="Ln-0qqn0iWtLyIjcQI3Q-177">
          <mxGeometry width="50" height="50" relative="1" as="geometry">
            <mxPoint x="-1029" y="560" as="sourcePoint" />
            <mxPoint x="-1199" y="517" as="targetPoint" />
          </mxGeometry>
        </mxCell>
        <mxCell id="Ln-0qqn0iWtLyIjcQI3Q-260" value="" style="endArrow=none;html=1;rounded=0;entryX=1;entryY=1;entryDx=0;entryDy=0;exitX=0.5;exitY=0;exitDx=0;exitDy=0;" edge="1" parent="1" source="Ln-0qqn0iWtLyIjcQI3Q-149" target="Ln-0qqn0iWtLyIjcQI3Q-176">
          <mxGeometry width="50" height="50" relative="1" as="geometry">
            <mxPoint x="-1249" y="667" as="sourcePoint" />
            <mxPoint x="-1199" y="617" as="targetPoint" />
          </mxGeometry>
        </mxCell>
        <mxCell id="Ln-0qqn0iWtLyIjcQI3Q-261" value="" style="endArrow=none;html=1;rounded=0;entryX=0.5;entryY=1;entryDx=0;entryDy=0;exitX=0.5;exitY=0;exitDx=0;exitDy=0;" edge="1" parent="1" source="Ln-0qqn0iWtLyIjcQI3Q-149" target="Ln-0qqn0iWtLyIjcQI3Q-178">
          <mxGeometry width="50" height="50" relative="1" as="geometry">
            <mxPoint x="-1249" y="667" as="sourcePoint" />
            <mxPoint x="-1199" y="617" as="targetPoint" />
          </mxGeometry>
        </mxCell>
        <mxCell id="Ln-0qqn0iWtLyIjcQI3Q-262" value="" style="endArrow=none;html=1;rounded=0;entryX=0;entryY=1;entryDx=0;entryDy=0;exitX=0.5;exitY=0;exitDx=0;exitDy=0;" edge="1" parent="1" source="Ln-0qqn0iWtLyIjcQI3Q-149" target="Ln-0qqn0iWtLyIjcQI3Q-179">
          <mxGeometry width="50" height="50" relative="1" as="geometry">
            <mxPoint x="-1249" y="667" as="sourcePoint" />
            <mxPoint x="-1199" y="617" as="targetPoint" />
          </mxGeometry>
        </mxCell>
        <mxCell id="Ln-0qqn0iWtLyIjcQI3Q-263" value="" style="endArrow=none;html=1;rounded=0;entryX=0;entryY=0.5;entryDx=0;entryDy=0;exitX=0.5;exitY=0;exitDx=0;exitDy=0;" edge="1" parent="1" source="Ln-0qqn0iWtLyIjcQI3Q-149" target="Ln-0qqn0iWtLyIjcQI3Q-180">
          <mxGeometry width="50" height="50" relative="1" as="geometry">
            <mxPoint x="-1249" y="667" as="sourcePoint" />
            <mxPoint x="-1199" y="617" as="targetPoint" />
          </mxGeometry>
        </mxCell>
        <mxCell id="Ln-0qqn0iWtLyIjcQI3Q-264" value="Idioma config" style="ellipse;whiteSpace=wrap;html=1;fillColor=#e1d5e7;strokeColor=#9673a6;gradientColor=none;" vertex="1" parent="1">
          <mxGeometry x="-1651.5" y="968.5" width="120" height="26" as="geometry" />
        </mxCell>
        <mxCell id="Ln-0qqn0iWtLyIjcQI3Q-265" value="" style="endArrow=none;html=1;rounded=0;exitX=1;exitY=0.5;exitDx=0;exitDy=0;entryX=0;entryY=0.5;entryDx=0;entryDy=0;" edge="1" parent="1" source="Ln-0qqn0iWtLyIjcQI3Q-264" target="Ln-0qqn0iWtLyIjcQI3Q-150">
          <mxGeometry width="50" height="50" relative="1" as="geometry">
            <mxPoint x="-1304" y="1050" as="sourcePoint" />
            <mxPoint x="-1254" y="1000" as="targetPoint" />
          </mxGeometry>
        </mxCell>
        <mxCell id="Ln-0qqn0iWtLyIjcQI3Q-266" value="Peso" style="ellipse;whiteSpace=wrap;html=1;fillColor=#e1d5e7;strokeColor=#9673a6;gradientColor=none;" vertex="1" parent="1">
          <mxGeometry x="-287" y="886" width="100" height="23" as="geometry" />
        </mxCell>
        <mxCell id="Ln-0qqn0iWtLyIjcQI3Q-267" value="Peso" style="ellipse;whiteSpace=wrap;html=1;fillColor=#e1d5e7;strokeColor=#9673a6;gradientColor=none;" vertex="1" parent="1">
          <mxGeometry x="-347.75" y="1104" width="138" height="26" as="geometry" />
        </mxCell>
        <mxCell id="Ln-0qqn0iWtLyIjcQI3Q-268" value="Peso Cap" style="ellipse;whiteSpace=wrap;html=1;fillColor=#e1d5e7;strokeColor=#9673a6;gradientColor=none;" vertex="1" parent="1">
          <mxGeometry x="-158.41999999999996" y="961" width="95.99" height="26" as="geometry" />
        </mxCell>
        <mxCell id="Ln-0qqn0iWtLyIjcQI3Q-269" value="Velocidad" style="ellipse;whiteSpace=wrap;html=1;fillColor=#e1d5e7;strokeColor=#9673a6;gradientColor=none;" vertex="1" parent="1">
          <mxGeometry x="-773" y="1141.5" width="83" height="26" as="geometry" />
        </mxCell>
        <mxCell id="Ln-0qqn0iWtLyIjcQI3Q-270" value="" style="endArrow=none;html=1;rounded=0;entryX=0;entryY=0.5;entryDx=0;entryDy=0;exitX=1;exitY=0.5;exitDx=0;exitDy=0;" edge="1" parent="1" source="Ln-0qqn0iWtLyIjcQI3Q-191" target="Ln-0qqn0iWtLyIjcQI3Q-269">
          <mxGeometry width="50" height="50" relative="1" as="geometry">
            <mxPoint x="-855" y="1156" as="sourcePoint" />
            <mxPoint x="-805" y="1106" as="targetPoint" />
          </mxGeometry>
        </mxCell>
        <mxCell id="Ln-0qqn0iWtLyIjcQI3Q-271" value="Premios" style="ellipse;whiteSpace=wrap;html=1;fillColor=#e1d5e7;strokeColor=#9673a6;gradientColor=none;" vertex="1" parent="1">
          <mxGeometry x="-287" y="857" width="99" height="25" as="geometry" />
        </mxCell>
        <mxCell id="Ln-0qqn0iWtLyIjcQI3Q-272" value="Año de lanzamiento" style="ellipse;whiteSpace=wrap;html=1;fillColor=#e1d5e7;strokeColor=#9673a6;gradientColor=none;" vertex="1" parent="1">
          <mxGeometry x="-349" y="1174" width="140.5" height="26" as="geometry" />
        </mxCell>
        <mxCell id="Ln-0qqn0iWtLyIjcQI3Q-273" value="&lt;u&gt;Titulo cast/ingles&lt;/u&gt;" style="ellipse;whiteSpace=wrap;html=1;fillColor=#e1d5e7;strokeColor=#9673a6;gradientColor=none;" vertex="1" parent="1">
          <mxGeometry x="-289" y="792" width="99" height="27" as="geometry" />
        </mxCell>
        <mxCell id="Ln-0qqn0iWtLyIjcQI3Q-274" value="Audio" style="ellipse;whiteSpace=wrap;html=1;fillColor=#e1d5e7;strokeColor=#9673a6;gradientColor=none;" vertex="1" parent="1">
          <mxGeometry x="-348.25" y="1139" width="139" height="24" as="geometry" />
        </mxCell>
        <mxCell id="Ln-0qqn0iWtLyIjcQI3Q-275" value="ATP" style="ellipse;whiteSpace=wrap;html=1;fillColor=#e1d5e7;strokeColor=#9673a6;gradientColor=none;" vertex="1" parent="1">
          <mxGeometry x="-494" y="778.5" width="102" height="21" as="geometry" />
        </mxCell>
        <mxCell id="Ln-0qqn0iWtLyIjcQI3Q-276" value="Audio" style="ellipse;whiteSpace=wrap;html=1;fillColor=#e1d5e7;strokeColor=#9673a6;gradientColor=none;" vertex="1" parent="1">
          <mxGeometry x="-285" y="913" width="98" height="24" as="geometry" />
        </mxCell>
        <mxCell id="Ln-0qqn0iWtLyIjcQI3Q-277" value="Subtitulos" style="ellipse;whiteSpace=wrap;html=1;fillColor=#e1d5e7;strokeColor=#9673a6;gradientColor=none;" vertex="1" parent="1">
          <mxGeometry x="-285" y="828" width="94" height="26" as="geometry" />
        </mxCell>
        <mxCell id="Ln-0qqn0iWtLyIjcQI3Q-278" value="Duracion" style="ellipse;whiteSpace=wrap;html=1;fillColor=#e1d5e7;strokeColor=#9673a6;gradientColor=none;" vertex="1" parent="1">
          <mxGeometry x="-347.75" y="760" width="91" height="22" as="geometry" />
        </mxCell>
        <mxCell id="Ln-0qqn0iWtLyIjcQI3Q-279" value="Año lanzamiento" style="ellipse;whiteSpace=wrap;html=1;fillColor=#e1d5e7;strokeColor=#9673a6;gradientColor=none;" vertex="1" parent="1">
          <mxGeometry x="-417.5" y="732" width="101" height="26" as="geometry" />
        </mxCell>
        <mxCell id="Ln-0qqn0iWtLyIjcQI3Q-280" value="" style="endArrow=none;html=1;rounded=0;exitX=0;exitY=0.5;exitDx=0;exitDy=0;" edge="1" parent="1" source="Ln-0qqn0iWtLyIjcQI3Q-267">
          <mxGeometry width="50" height="50" relative="1" as="geometry">
            <mxPoint x="-710" y="1031" as="sourcePoint" />
            <mxPoint x="-394" y="1093" as="targetPoint" />
          </mxGeometry>
        </mxCell>
        <mxCell id="Ln-0qqn0iWtLyIjcQI3Q-281" value="" style="endArrow=none;html=1;rounded=0;exitX=0;exitY=0.5;exitDx=0;exitDy=0;" edge="1" parent="1" source="Ln-0qqn0iWtLyIjcQI3Q-272">
          <mxGeometry width="50" height="50" relative="1" as="geometry">
            <mxPoint x="-337" y="1084.5" as="sourcePoint" />
            <mxPoint x="-395" y="1092" as="targetPoint" />
          </mxGeometry>
        </mxCell>
        <mxCell id="Ln-0qqn0iWtLyIjcQI3Q-282" value="" style="endArrow=none;html=1;rounded=0;entryX=0.5;entryY=1;entryDx=0;entryDy=0;exitX=1;exitY=0;exitDx=0;exitDy=0;" edge="1" parent="1" source="Ln-0qqn0iWtLyIjcQI3Q-173" target="Ln-0qqn0iWtLyIjcQI3Q-275">
          <mxGeometry width="50" height="50" relative="1" as="geometry">
            <mxPoint x="-499" y="1032" as="sourcePoint" />
            <mxPoint x="-449" y="982" as="targetPoint" />
          </mxGeometry>
        </mxCell>
        <mxCell id="Ln-0qqn0iWtLyIjcQI3Q-283" value="" style="endArrow=none;html=1;rounded=0;exitX=0;exitY=0.5;exitDx=0;exitDy=0;entryX=1;entryY=0;entryDx=0;entryDy=0;" edge="1" parent="1" source="Ln-0qqn0iWtLyIjcQI3Q-274">
          <mxGeometry width="50" height="50" relative="1" as="geometry">
            <mxPoint x="-337" y="1120.5" as="sourcePoint" />
            <mxPoint x="-395" y="1093" as="targetPoint" />
          </mxGeometry>
        </mxCell>
        <mxCell id="Ln-0qqn0iWtLyIjcQI3Q-284" value="" style="endArrow=none;html=1;rounded=0;entryX=0.5;entryY=1;entryDx=0;entryDy=0;exitX=1;exitY=0;exitDx=0;exitDy=0;" edge="1" parent="1" source="Ln-0qqn0iWtLyIjcQI3Q-173" target="Ln-0qqn0iWtLyIjcQI3Q-279">
          <mxGeometry width="50" height="50" relative="1" as="geometry">
            <mxPoint x="-499" y="1032" as="sourcePoint" />
            <mxPoint x="-449" y="982" as="targetPoint" />
          </mxGeometry>
        </mxCell>
        <mxCell id="Ln-0qqn0iWtLyIjcQI3Q-285" value="" style="endArrow=none;html=1;rounded=0;exitX=0.5;exitY=1;exitDx=0;exitDy=0;entryX=1;entryY=0;entryDx=0;entryDy=0;" edge="1" parent="1" source="Ln-0qqn0iWtLyIjcQI3Q-278" target="Ln-0qqn0iWtLyIjcQI3Q-173">
          <mxGeometry width="50" height="50" relative="1" as="geometry">
            <mxPoint x="-499" y="1032" as="sourcePoint" />
            <mxPoint x="-366" y="921" as="targetPoint" />
          </mxGeometry>
        </mxCell>
        <mxCell id="Ln-0qqn0iWtLyIjcQI3Q-286" value="" style="endArrow=none;html=1;rounded=0;entryX=0;entryY=0.5;entryDx=0;entryDy=0;exitX=1;exitY=0;exitDx=0;exitDy=0;" edge="1" parent="1" source="Ln-0qqn0iWtLyIjcQI3Q-173" target="Ln-0qqn0iWtLyIjcQI3Q-273">
          <mxGeometry width="50" height="50" relative="1" as="geometry">
            <mxPoint x="-499" y="1032" as="sourcePoint" />
            <mxPoint x="-449" y="982" as="targetPoint" />
          </mxGeometry>
        </mxCell>
        <mxCell id="Ln-0qqn0iWtLyIjcQI3Q-287" value="" style="endArrow=none;html=1;rounded=0;exitX=0;exitY=0.5;exitDx=0;exitDy=0;entryX=1;entryY=0;entryDx=0;entryDy=0;" edge="1" parent="1" source="Ln-0qqn0iWtLyIjcQI3Q-277" target="Ln-0qqn0iWtLyIjcQI3Q-173">
          <mxGeometry width="50" height="50" relative="1" as="geometry">
            <mxPoint x="-499" y="1032" as="sourcePoint" />
            <mxPoint x="-449" y="982" as="targetPoint" />
          </mxGeometry>
        </mxCell>
        <mxCell id="Ln-0qqn0iWtLyIjcQI3Q-288" value="" style="endArrow=none;html=1;rounded=0;exitX=0;exitY=0.5;exitDx=0;exitDy=0;entryX=1;entryY=0;entryDx=0;entryDy=0;" edge="1" parent="1" source="Ln-0qqn0iWtLyIjcQI3Q-271" target="Ln-0qqn0iWtLyIjcQI3Q-173">
          <mxGeometry width="50" height="50" relative="1" as="geometry">
            <mxPoint x="-499" y="1032" as="sourcePoint" />
            <mxPoint x="-449" y="982" as="targetPoint" />
          </mxGeometry>
        </mxCell>
        <mxCell id="Ln-0qqn0iWtLyIjcQI3Q-289" value="" style="endArrow=none;html=1;rounded=0;entryX=0;entryY=0.5;entryDx=0;entryDy=0;exitX=1;exitY=0;exitDx=0;exitDy=0;" edge="1" parent="1" source="Ln-0qqn0iWtLyIjcQI3Q-173" target="Ln-0qqn0iWtLyIjcQI3Q-266">
          <mxGeometry width="50" height="50" relative="1" as="geometry">
            <mxPoint x="-499" y="1032" as="sourcePoint" />
            <mxPoint x="-449" y="982" as="targetPoint" />
          </mxGeometry>
        </mxCell>
        <mxCell id="Ln-0qqn0iWtLyIjcQI3Q-290" value="" style="endArrow=none;html=1;rounded=0;entryX=0;entryY=0.5;entryDx=0;entryDy=0;exitX=1;exitY=0;exitDx=0;exitDy=0;" edge="1" parent="1" source="Ln-0qqn0iWtLyIjcQI3Q-173" target="Ln-0qqn0iWtLyIjcQI3Q-276">
          <mxGeometry width="50" height="50" relative="1" as="geometry">
            <mxPoint x="-499" y="1032" as="sourcePoint" />
            <mxPoint x="-449" y="982" as="targetPoint" />
          </mxGeometry>
        </mxCell>
        <mxCell id="Ln-0qqn0iWtLyIjcQI3Q-291" value="Cant Cap" style="ellipse;whiteSpace=wrap;html=1;fillColor=#e1d5e7;strokeColor=#9673a6;gradientColor=none;" vertex="1" parent="1">
          <mxGeometry x="-152.43000000000006" y="1085" width="92.99" height="26" as="geometry" />
        </mxCell>
        <mxCell id="Ln-0qqn0iWtLyIjcQI3Q-292" value="Audio" style="ellipse;whiteSpace=wrap;html=1;fillColor=#e1d5e7;strokeColor=#9673a6;gradientColor=none;" vertex="1" parent="1">
          <mxGeometry x="-155.41999999999996" y="928.5" width="89.99" height="26" as="geometry" />
        </mxCell>
        <mxCell id="Ln-0qqn0iWtLyIjcQI3Q-293" value="Subtitulos" style="ellipse;whiteSpace=wrap;html=1;fillColor=#e1d5e7;strokeColor=#9673a6;gradientColor=none;" vertex="1" parent="1">
          <mxGeometry x="-152.42999999999995" y="1053.5" width="90" height="26" as="geometry" />
        </mxCell>
        <mxCell id="Ln-0qqn0iWtLyIjcQI3Q-294" value="Cant Temp" style="ellipse;whiteSpace=wrap;html=1;fillColor=#e1d5e7;strokeColor=#9673a6;gradientColor=none;" vertex="1" parent="1">
          <mxGeometry x="-153.87" y="1022" width="90.87" height="26" as="geometry" />
        </mxCell>
        <mxCell id="Ln-0qqn0iWtLyIjcQI3Q-295" value="&lt;u&gt;Titulo cast/ingles&lt;/u&gt;" style="ellipse;whiteSpace=wrap;html=1;fillColor=#e1d5e7;strokeColor=#9673a6;gradientColor=none;" vertex="1" parent="1">
          <mxGeometry x="-157.43000000000006" y="991.5" width="97.99" height="27" as="geometry" />
        </mxCell>
        <mxCell id="Ln-0qqn0iWtLyIjcQI3Q-296" value="&lt;u&gt;Titulo&lt;/u&gt;" style="ellipse;whiteSpace=wrap;html=1;fillColor=#e1d5e7;strokeColor=#9673a6;gradientColor=none;" vertex="1" parent="1">
          <mxGeometry x="-349" y="1211" width="140.5" height="26" as="geometry" />
        </mxCell>
        <mxCell id="Ln-0qqn0iWtLyIjcQI3Q-297" value="" style="endArrow=none;html=1;rounded=0;entryX=1;entryY=0.5;entryDx=0;entryDy=0;exitX=0;exitY=0.5;exitDx=0;exitDy=0;" edge="1" parent="1" source="Ln-0qqn0iWtLyIjcQI3Q-296" target="Ln-0qqn0iWtLyIjcQI3Q-175">
          <mxGeometry width="50" height="50" relative="1" as="geometry">
            <mxPoint x="-460" y="1125" as="sourcePoint" />
            <mxPoint x="-410" y="1075" as="targetPoint" />
          </mxGeometry>
        </mxCell>
        <mxCell id="Ln-0qqn0iWtLyIjcQI3Q-298" value="" style="endArrow=none;html=1;rounded=0;entryX=0;entryY=0.5;entryDx=0;entryDy=0;exitX=1;exitY=0.5;exitDx=0;exitDy=0;" edge="1" parent="1" source="Ln-0qqn0iWtLyIjcQI3Q-174" target="Ln-0qqn0iWtLyIjcQI3Q-291">
          <mxGeometry width="50" height="50" relative="1" as="geometry">
            <mxPoint x="-384" y="1149" as="sourcePoint" />
            <mxPoint x="-334" y="1099" as="targetPoint" />
          </mxGeometry>
        </mxCell>
        <mxCell id="Ln-0qqn0iWtLyIjcQI3Q-299" value="" style="endArrow=none;html=1;rounded=0;exitX=0;exitY=0.5;exitDx=0;exitDy=0;entryX=1;entryY=0.5;entryDx=0;entryDy=0;" edge="1" parent="1" source="Ln-0qqn0iWtLyIjcQI3Q-293" target="Ln-0qqn0iWtLyIjcQI3Q-174">
          <mxGeometry width="50" height="50" relative="1" as="geometry">
            <mxPoint x="-384" y="1149" as="sourcePoint" />
            <mxPoint x="-386" y="1020" as="targetPoint" />
          </mxGeometry>
        </mxCell>
        <mxCell id="Ln-0qqn0iWtLyIjcQI3Q-300" value="" style="endArrow=none;html=1;rounded=0;exitX=1;exitY=0.5;exitDx=0;exitDy=0;entryX=0;entryY=0.5;entryDx=0;entryDy=0;" edge="1" parent="1" source="Ln-0qqn0iWtLyIjcQI3Q-174" target="Ln-0qqn0iWtLyIjcQI3Q-294">
          <mxGeometry width="50" height="50" relative="1" as="geometry">
            <mxPoint x="-384" y="1149" as="sourcePoint" />
            <mxPoint x="-334" y="1099" as="targetPoint" />
          </mxGeometry>
        </mxCell>
        <mxCell id="Ln-0qqn0iWtLyIjcQI3Q-301" value="" style="endArrow=none;html=1;rounded=0;exitX=1;exitY=0.5;exitDx=0;exitDy=0;entryX=0;entryY=0.5;entryDx=0;entryDy=0;" edge="1" parent="1" source="Ln-0qqn0iWtLyIjcQI3Q-174" target="Ln-0qqn0iWtLyIjcQI3Q-295">
          <mxGeometry width="50" height="50" relative="1" as="geometry">
            <mxPoint x="-384" y="1149" as="sourcePoint" />
            <mxPoint x="-334" y="1099" as="targetPoint" />
          </mxGeometry>
        </mxCell>
        <mxCell id="Ln-0qqn0iWtLyIjcQI3Q-302" value="" style="endArrow=none;html=1;rounded=0;exitX=1;exitY=0.5;exitDx=0;exitDy=0;entryX=0;entryY=0.5;entryDx=0;entryDy=0;" edge="1" parent="1" source="Ln-0qqn0iWtLyIjcQI3Q-174" target="Ln-0qqn0iWtLyIjcQI3Q-268">
          <mxGeometry width="50" height="50" relative="1" as="geometry">
            <mxPoint x="-384" y="1149" as="sourcePoint" />
            <mxPoint x="-334" y="1099" as="targetPoint" />
          </mxGeometry>
        </mxCell>
        <mxCell id="Ln-0qqn0iWtLyIjcQI3Q-303" value="" style="endArrow=none;html=1;rounded=0;exitX=1;exitY=0.5;exitDx=0;exitDy=0;entryX=0;entryY=0.5;entryDx=0;entryDy=0;" edge="1" parent="1" source="Ln-0qqn0iWtLyIjcQI3Q-174" target="Ln-0qqn0iWtLyIjcQI3Q-292">
          <mxGeometry width="50" height="50" relative="1" as="geometry">
            <mxPoint x="-384" y="1149" as="sourcePoint" />
            <mxPoint x="-334" y="1099" as="targetPoint" />
          </mxGeometry>
        </mxCell>
        <mxCell id="Ln-0qqn0iWtLyIjcQI3Q-304" value="Calidad" style="ellipse;whiteSpace=wrap;html=1;fillColor=#e1d5e7;strokeColor=#9673a6;gradientColor=none;" vertex="1" parent="1">
          <mxGeometry x="-1132" y="1164.5" width="77" height="26" as="geometry" />
        </mxCell>
        <mxCell id="Ln-0qqn0iWtLyIjcQI3Q-305" value="" style="endArrow=none;html=1;rounded=0;exitX=0.5;exitY=1;exitDx=0;exitDy=0;entryX=0.5;entryY=0;entryDx=0;entryDy=0;" edge="1" parent="1" source="Ln-0qqn0iWtLyIjcQI3Q-193" target="Ln-0qqn0iWtLyIjcQI3Q-304">
          <mxGeometry width="50" height="50" relative="1" as="geometry">
            <mxPoint x="-1037" y="1165.5" as="sourcePoint" />
            <mxPoint x="-987" y="1115.5" as="targetPoint" />
          </mxGeometry>
        </mxCell>
        <mxCell id="Ln-0qqn0iWtLyIjcQI3Q-306" value="Duración" style="ellipse;whiteSpace=wrap;html=1;fillColor=#e1d5e7;strokeColor=#9673a6;gradientColor=none;" vertex="1" parent="1">
          <mxGeometry x="-1187" y="1196.5" width="77" height="26" as="geometry" />
        </mxCell>
        <mxCell id="Ln-0qqn0iWtLyIjcQI3Q-307" value="" style="endArrow=none;html=1;rounded=0;entryX=0.5;entryY=0;entryDx=0;entryDy=0;" edge="1" parent="1" target="Ln-0qqn0iWtLyIjcQI3Q-306">
          <mxGeometry width="50" height="50" relative="1" as="geometry">
            <mxPoint x="-1151" y="1147.5" as="sourcePoint" />
            <mxPoint x="-1099" y="1175.5" as="targetPoint" />
          </mxGeometry>
        </mxCell>
        <mxCell id="Ln-0qqn0iWtLyIjcQI3Q-308" value="Favoritos" style="ellipse;whiteSpace=wrap;html=1;fillColor=#e1d5e7;strokeColor=#9673a6;gradientColor=none;" vertex="1" parent="1">
          <mxGeometry x="-1112" y="1057.5" width="74.5" height="26" as="geometry" />
        </mxCell>
        <mxCell id="Ln-0qqn0iWtLyIjcQI3Q-309" value="" style="endArrow=none;html=1;rounded=0;exitX=0.5;exitY=1;exitDx=0;exitDy=0;entryX=0.5;entryY=0;entryDx=0;entryDy=0;" edge="1" parent="1" target="Ln-0qqn0iWtLyIjcQI3Q-308">
          <mxGeometry width="50" height="50" relative="1" as="geometry">
            <mxPoint x="-1127" y="1040" as="sourcePoint" />
            <mxPoint x="-1070" y="1056" as="targetPoint" />
          </mxGeometry>
        </mxCell>
        <mxCell id="Ln-0qqn0iWtLyIjcQI3Q-310" value="Peso dispositivo" style="ellipse;whiteSpace=wrap;html=1;fillColor=#e1d5e7;strokeColor=#9673a6;gradientColor=none;" vertex="1" parent="1">
          <mxGeometry x="-1162" y="1293" width="120" height="26" as="geometry" />
        </mxCell>
        <mxCell id="Ln-0qqn0iWtLyIjcQI3Q-311" value="" style="endArrow=none;html=1;rounded=0;exitX=0.5;exitY=1;exitDx=0;exitDy=0;entryX=0;entryY=0.5;entryDx=0;entryDy=0;" edge="1" parent="1" source="Ln-0qqn0iWtLyIjcQI3Q-152" target="Ln-0qqn0iWtLyIjcQI3Q-310">
          <mxGeometry width="50" height="50" relative="1" as="geometry">
            <mxPoint x="-1273" y="1271" as="sourcePoint" />
            <mxPoint x="-1223" y="1221" as="targetPoint" />
          </mxGeometry>
        </mxCell>
      </root>
    </mxGraphModel>
  </diagram>
</mxfile>
